<svg width="50" height="50" viewBox="0 0 50 50" fill="none" xmlns="http://www.w3.org/2000/svg">
<g id="Group 6">
<g id="003-trolley">
<path id="Shape" fill-rule="evenodd" clip-rule="evenodd" d="M0 3.2258C0 1.44678 1.44678 0 3.22583 0C5.00488 0 6.45166 1.44678 6.45166 3.2258C6.45166 5.00485 5.00488 6.4516 3.22583 6.4516C1.44678 6.4516 0 5.00485 0 3.2258ZM1.61279 3.22583C1.61279 4.11533 2.33618 4.83871 3.22559 4.83871C4.11523 4.83871 4.83862 4.11533 4.83862 3.22583C4.83862 2.3363 4.11523 1.61292 3.22559 1.61292C2.33618 1.61292 1.61279 2.3363 1.61279 3.22583Z" transform="translate(3.22583 40.3226)" fill="#012B48"/>
<path id="Shape_2" fill-rule="evenodd" clip-rule="evenodd" d="M44.3547 23.3871V37.1524C47.5322 37.5516 50 40.2645 50 43.5484C50 47.1057 47.1057 50 43.5483 50C40.8467 50 38.5315 48.329 37.5718 45.9677H12.4282C11.4685 48.329 9.15332 50 6.45166 50C2.89429 50 0 47.1057 0 43.5484C0 40.2645 2.46777 37.5516 5.64526 37.1524V4.03226C5.64526 2.69839 4.55957 1.61292 3.22583 1.61292H0V0H3.22583C5.44922 0 7.25806 1.80887 7.25806 4.03226V23.3871H8.87085V5.64517H41.1292V23.3871H44.3547ZM27.4192 7.25806H22.5806V13.7097H27.4192V7.25806ZM10.4839 7.25806H20.9678V15.3226H29.0322V7.25806H39.5161V23.3871H29.0322H20.9678H10.4839V7.25806ZM27.4192 34.6774V25H22.5806V34.6774H27.4192ZM6.45142 48.3871C3.78296 48.3871 1.61279 46.2169 1.61279 43.5484C1.61279 40.8799 3.78296 38.7097 6.45142 38.7097C9.12012 38.7097 11.2903 40.8799 11.2903 43.5484C11.2903 46.2169 9.12012 48.3871 6.45142 48.3871ZM12.8477 44.3549H37.1526C37.1194 44.0903 37.0969 43.8218 37.0969 43.5484C37.0969 43.275 37.1194 43.0065 37.1533 42.7419H12.8477C12.8806 43.0065 12.9033 43.275 12.9033 43.5484C12.9033 43.8218 12.8806 44.0903 12.8477 44.3549ZM12.4282 41.129C11.5662 39.0073 9.60718 37.4476 7.25806 37.1524V25H20.9678V36.2903H29.0322V25H42.7419V37.1524C41.9138 37.2564 41.1323 37.5145 40.4321 37.9032H39.5161V38.5202C38.6638 39.2048 37.9895 40.1008 37.5718 41.129H12.4282ZM38.7097 43.5484C38.7097 46.2169 40.8799 48.3871 43.5483 48.3871C46.217 48.3871 48.3872 46.2169 48.3872 43.5484C48.3872 40.8799 46.217 38.7097 43.5483 38.7097C40.8799 38.7097 38.7097 40.8799 38.7097 43.5484Z" fill="#012B48"/>
<path id="Shape_3" fill-rule="evenodd" clip-rule="evenodd" d="M0 3.2258C0 1.44678 1.44678 0 3.22583 0C5.00488 0 6.45166 1.44678 6.45166 3.2258C6.45166 5.00485 5.00488 6.4516 3.22583 6.4516C1.44678 6.4516 0 5.00485 0 3.2258ZM1.61279 3.22583C1.61279 4.11533 2.33618 4.83871 3.22559 4.83871C4.11523 4.83871 4.83862 4.11533 4.83862 3.22583C4.83862 2.3363 4.11523 1.61292 3.22559 1.61292C2.33618 1.61292 1.61279 2.3363 1.61279 3.22583Z" transform="translate(40.3225 40.3226)" fill="#012B48"/>
<path id="Rectangle-path" d="M0 0H1.6129V1.6129H0V0Z" transform="translate(36.2903 20.1613)" fill="#012B48"/>
<path id="Rectangle-path_2" d="M0 0H1.6129V1.6129H0V0Z" transform="translate(33.0645 20.1613)" fill="#012B48"/>
<path id="Rectangle-path_3" d="M0 0H1.6129V1.6129H0V0Z" transform="translate(36.2903 16.9355)" fill="#012B48"/>
<path id="Rectangle-path_4" d="M0 0H1.6129V1.6129H0V0Z" transform="translate(36.2903 37.9032)" fill="#012B48"/>
<path id="Rectangle-path_5" d="M0 0H1.6129V1.6129H0V0Z" transform="translate(39.5161 34.6774)" fill="#012B48"/>
</g>
</g>
</svg>
