<svg width="1086" height="393" viewBox="0 0 1086 393" fill="none" xmlns="http://www.w3.org/2000/svg">
<path opacity="0.812221" fill-rule="evenodd" clip-rule="evenodd" d="M545.82 0.999756C545.82 0.447388 545.372 -0.00012207 544.819 0L543.823 0.00109863C543.271 0.00219727 542.824 0.450806 542.825 1.00305C542.826 1.55542 543.275 2.0022 543.827 2.0011L544.82 2C545.373 1.99988 545.82 1.552 545.82 0.999756ZM551.852 0.0401611C552.404 0.0466309 552.846 0.499634 552.84 1.05188C552.833 1.60413 552.38 2.04651 551.828 2.04004L550.83 2.0293C550.278 2.02368 549.834 1.57153 549.84 1.01929C549.845 0.467041 550.297 0.0238037 550.85 0.0292969L551.852 0.0401611ZM559.836 1.18762C559.849 0.635498 559.412 0.177246 558.86 0.164185L557.858 0.141357C557.306 0.129272 556.849 0.567017 556.837 1.11914C556.825 1.67126 557.262 2.12878 557.814 2.14087L558.812 2.1637C559.365 2.17676 559.823 1.73975 559.836 1.18762ZM565.893 0.373169C566.445 0.392944 566.876 0.856323 566.856 1.4082C566.837 1.96021 566.374 2.3916 565.821 2.37183L564.824 2.33704C564.272 2.31824 563.84 1.85559 563.858 1.30359C563.877 0.751709 564.34 0.319458 564.892 0.338257L565.893 0.373169ZM573.855 1.71277C573.881 1.16101 573.456 0.692505 572.904 0.666138L571.903 0.619141C571.352 0.59375 570.884 1.02026 570.858 1.57202C570.833 2.12378 571.26 2.59155 571.812 2.61694L572.809 2.66382C573.36 2.69019 573.829 2.2644 573.855 1.71277ZM579.894 1.04248C580.445 1.07556 580.865 1.54919 580.833 2.10046C580.799 2.65186 580.326 3.07202 579.774 3.03894L578.778 2.9801C578.227 2.94812 577.806 2.4751 577.838 1.92383C577.87 1.37244 578.343 0.951416 578.895 0.983521L579.894 1.04248ZM587.832 2.57434C587.871 2.02356 587.457 1.5448 586.906 1.50513L585.906 1.43396C585.354 1.39514 584.876 1.81042 584.838 2.36133C584.799 2.91223 585.214 3.39026 585.765 3.42896L586.762 3.5C587.313 3.53967 587.792 3.12524 587.832 2.57434ZM593.895 2.05115C594.445 2.09753 594.854 2.58118 594.807 3.13159C594.761 3.68188 594.277 4.09045 593.727 4.04407L592.73 3.96106C592.18 3.91565 591.771 3.43262 591.816 2.8822C591.861 2.33179 592.344 1.92236 592.895 1.96777L593.895 2.05115ZM601.759 3.77173C601.812 3.22205 601.409 2.7334 600.859 2.68042L599.861 2.58496C599.311 2.53296 598.823 2.9364 598.771 3.48621C598.719 4.03613 599.123 4.52405 599.672 4.57605L600.667 4.67114C601.217 4.72412 601.706 4.32153 601.759 3.77173ZM607.845 3.39697C608.394 3.45667 608.791 3.95007 608.73 4.49915C608.671 5.04822 608.177 5.44495 607.628 5.38525L606.635 5.27808C606.086 5.21936 605.688 4.72656 605.748 4.17737C605.806 3.6283 606.299 3.23071 606.848 3.28943L607.845 3.39697ZM615.678 5.30957C615.744 4.76123 615.354 4.26294 614.805 4.19666L613.81 4.0769C613.261 4.0116 612.764 4.40308 612.698 4.95142C612.633 5.49988 613.024 5.99744 613.573 6.06287L614.564 6.18213C615.113 6.24854 615.611 5.85779 615.678 5.30957ZM621.784 5.08459C622.331 5.15771 622.715 5.66077 622.643 6.20813C622.569 6.75562 622.066 7.14014 621.519 7.06702L620.531 6.93604C619.983 6.86389 619.598 6.36157 619.67 5.81396C619.742 5.26648 620.244 4.88098 620.792 4.95312L621.784 5.08459ZM629.581 7.18982C629.661 6.64331 629.282 6.13562 628.736 6.05591L627.747 5.91248C627.2 5.83362 626.693 6.21289 626.614 6.75952C626.536 7.30615 626.915 7.81323 627.461 7.89197L628.447 8.03491C628.994 8.11475 629.501 7.73633 629.581 7.18982ZM635.661 7.10974C636.207 7.19617 636.579 7.70837 636.493 8.25391C636.406 8.79944 635.894 9.17151 635.348 9.08508L634.364 8.93005C633.819 8.8446 633.446 8.33301 633.531 7.78735C633.617 7.24182 634.128 6.86877 634.674 6.95422L635.661 7.10974ZM643.42 9.40747C643.513 8.86304 643.147 8.34631 642.603 8.25317L641.618 8.08557C641.073 7.99341 640.557 8.36023 640.465 8.90466C640.373 9.44922 640.739 9.96545 641.284 10.0575L642.266 10.2246C642.81 10.3176 643.327 9.95178 643.42 9.40747ZM649.516 9.47913C650.06 9.57886 650.419 10.1001 650.319 10.6433C650.219 11.1865 649.698 11.546 649.155 11.4462L648.174 11.267C647.631 11.1682 647.271 10.6476 647.369 10.1042C647.468 9.56079 647.989 9.20044 648.532 9.29932L649.516 9.47913ZM657.189 11.9612C657.295 11.4192 656.942 10.8937 656.4 10.7872L655.42 10.5956C654.878 10.4901 654.353 10.8441 654.248 11.3862C654.142 11.9283 654.496 12.4534 655.038 12.5588L656.015 12.7498C656.557 12.8562 657.083 12.5032 657.189 11.9612ZM663.256 12.1769C663.797 12.2899 664.144 12.8198 664.03 13.3604C663.917 13.901 663.388 14.2476 662.847 14.1346L661.868 13.9308C661.327 13.8187 660.979 13.2894 661.092 12.7487C661.204 12.2079 661.733 11.8604 662.274 11.9724L663.256 12.1769ZM670.884 14.85C671.004 14.3108 670.664 13.7767 670.125 13.6571L669.147 13.4409C668.607 13.3223 668.074 13.6632 667.955 14.2026C667.836 14.7419 668.178 15.2755 668.717 15.3942L669.691 15.6095C670.23 15.7292 670.765 15.3892 670.884 14.85ZM676.961 15.2188C677.499 15.345 677.833 15.8832 677.707 16.4209C677.58 16.9585 677.042 17.292 676.504 17.1658L675.534 16.9386C674.996 16.8132 674.661 16.2756 674.787 15.7378C674.912 15.1998 675.45 14.8655 675.987 14.9908L676.961 15.2188ZM684.498 18.0726C684.631 17.5366 684.304 16.9943 683.768 16.8615L682.795 16.6212C682.259 16.4893 681.717 16.8171 681.585 17.3534C681.454 17.8898 681.781 18.4314 682.317 18.5634L683.287 18.8027C683.823 18.9355 684.365 18.6086 684.498 18.0726ZM690.584 18.5955C691.119 18.735 691.439 19.2812 691.3 19.8156C691.16 20.35 690.614 20.6702 690.08 20.5306L689.116 20.2802C688.582 20.1416 688.26 19.5959 688.399 19.0613C688.538 18.5267 689.083 18.2056 689.618 18.3441L690.584 18.5955ZM698.069 21.6393C698.215 21.1067 697.901 20.5565 697.369 20.4105L696.404 20.147C695.871 20.0018 695.322 20.3163 695.176 20.8491C695.031 21.382 695.346 21.9316 695.878 22.0767L696.84 22.3394C697.373 22.4854 697.923 22.1719 698.069 21.6393ZM704.119 22.3058C704.65 22.4584 704.957 23.0123 704.804 23.5431C704.651 24.0739 704.098 24.3805 703.567 24.2279L702.603 23.9518C702.072 23.8002 701.764 23.2468 701.916 22.7157C702.067 22.1847 702.621 21.8771 703.152 22.0287L704.119 22.3058ZM711.506 25.5266C711.665 24.9977 711.365 24.4401 710.836 24.281L709.879 23.994C709.35 23.8359 708.792 24.1367 708.634 24.6659C708.476 25.1951 708.777 25.7522 709.306 25.9103L710.26 26.1963C710.789 26.3553 711.347 26.0555 711.506 25.5266ZM717.56 26.3483C718.086 26.5139 718.379 27.0752 718.214 27.6021C718.048 28.129 717.487 28.4219 716.96 28.2563L716.01 27.9589C715.483 27.7942 715.189 27.2334 715.354 26.7062C715.519 26.179 716.079 25.8851 716.606 26.0498L717.56 26.3483ZM724.887 29.7572C725.059 29.2324 724.772 28.6675 724.248 28.4955L723.292 28.183C722.767 28.012 722.203 28.2988 722.031 28.824C721.86 29.3491 722.147 29.9135 722.672 30.0846L723.625 30.3959C724.15 30.568 724.714 30.282 724.887 29.7572ZM730.9 30.7216C731.423 30.9001 731.702 31.4685 731.523 31.9911C731.345 32.5138 730.777 32.7927 730.254 32.6143L729.312 32.2935C728.789 32.116 728.509 31.548 728.687 31.025C728.864 30.5021 729.432 30.2222 729.955 30.3997L730.9 30.7216ZM738.124 34.3035C738.309 33.7831 738.037 33.2113 737.517 33.0264L736.574 32.6924C736.053 32.5084 735.481 32.7814 735.298 33.3021C735.114 33.8229 735.387 34.3942 735.907 34.5781L736.847 34.911C737.367 35.0959 737.939 34.8239 738.124 34.3035ZM744.096 35.4093C744.614 35.6006 744.878 36.1755 744.688 36.6937C744.496 37.2118 743.921 37.4768 743.403 37.2855L742.469 36.9415C741.95 36.7512 741.684 36.1766 741.875 35.6582C742.065 35.1398 742.64 34.8738 743.158 35.0641L744.096 35.4093ZM751.253 39.1766C751.451 38.6609 751.193 38.0826 750.677 37.885L749.747 37.5295C749.231 37.3328 748.653 37.5917 748.457 38.1077C748.26 38.6238 748.519 39.2015 749.035 39.3983L749.961 39.7526C750.477 39.9502 751.056 39.6923 751.253 39.1766ZM757.22 40.4385C757.733 40.6425 757.984 41.2239 757.78 41.7371C757.576 42.2504 756.995 42.5011 756.481 42.2971L755.553 41.9288C755.039 41.7258 754.787 41.1449 754.99 40.6312C755.193 40.1177 755.774 39.866 756.288 40.069L757.22 40.4385ZM764.268 44.3746C764.479 43.864 764.235 43.2795 763.724 43.0693L762.792 42.6863C762.28 42.4771 761.696 42.7216 761.487 43.2327C761.278 43.7438 761.522 44.3278 762.033 44.5371L762.963 44.9187C763.473 45.1289 764.058 44.8854 764.268 44.3746ZM770.188 45.7769C770.696 45.9933 770.933 46.5807 770.716 47.0887C770.5 47.5968 769.912 47.8333 769.404 47.6167L768.489 47.2277C767.98 47.0121 767.743 46.425 767.958 45.9166C768.174 45.4082 768.761 45.1708 769.27 45.3864L770.188 45.7769ZM777.124 49.8789C777.347 49.3735 777.117 48.7833 776.612 48.5605L775.697 48.1583C775.191 47.9365 774.601 48.1667 774.379 48.6725C774.158 49.1782 774.388 49.7681 774.894 49.9899L775.806 50.3907C776.311 50.6135 776.901 50.3843 777.124 49.8789ZM783.034 51.4376C783.537 51.6665 783.758 52.2595 783.529 52.7621C783.301 53.2648 782.708 53.4867 782.205 53.2577L781.298 52.8456C780.795 52.6176 780.572 52.025 780.8 51.522C781.028 51.0189 781.621 50.796 782.124 51.024L783.034 51.4376ZM789.855 55.703C790.09 55.2031 789.875 54.6075 789.375 54.3724L788.472 53.9486C787.972 53.7144 787.376 53.9301 787.143 54.4303C786.908 54.9304 787.124 55.5258 787.624 55.7599L788.524 56.1824C789.024 56.4174 789.62 56.2028 789.855 55.703ZM795.713 57.4004C796.21 57.6415 796.417 58.2397 796.177 58.7366C795.936 59.2335 795.337 59.4408 794.84 59.1996L793.948 58.7676C793.451 58.5273 793.242 57.9294 793.482 57.4321C793.723 56.9348 794.321 56.7264 794.818 56.9668L795.713 57.4004ZM802.455 61.845C802.702 61.3511 802.502 60.7502 802.008 60.5031L801.108 60.0537C800.614 59.8074 800.014 60.0084 799.767 60.5027C799.521 60.9969 799.722 61.5974 800.216 61.8438L801.113 62.2915C801.607 62.5387 802.208 62.3387 802.455 61.845ZM808.259 63.6799C808.75 63.9332 808.943 64.5364 808.689 65.0272C808.437 65.5179 807.833 65.7106 807.342 65.4574L806.457 65.0013C805.965 64.749 805.772 64.1462 806.024 63.6549C806.277 63.1637 806.879 62.9701 807.371 63.2224L808.259 63.6799ZM814.88 68.283C815.139 67.7953 814.954 67.1898 814.466 66.9305L813.575 66.458C813.087 66.1997 812.482 66.386 812.224 66.8741C811.965 67.3622 812.152 67.9674 812.64 68.2257L813.528 68.6967C814.015 68.9558 814.621 68.7706 814.88 68.283ZM820.628 70.2543C821.113 70.5194 821.291 71.1271 821.025 71.6116C820.76 72.0961 820.153 72.2738 819.668 72.0087L818.794 71.5314C818.309 71.2671 818.13 70.6597 818.395 70.1747C818.659 69.6898 819.266 69.5109 819.751 69.7751L820.628 70.2543ZM827.163 75.0333C827.434 74.5521 827.263 73.9423 826.782 73.6713L825.905 73.1781C825.423 72.9078 824.814 73.0793 824.543 73.5609C824.273 74.0426 824.445 74.6521 824.926 74.9224L825.801 75.4138C826.282 75.6848 826.892 75.5145 827.163 75.0333ZM832.853 77.1396C833.331 77.4166 833.493 78.0284 833.216 78.5063C832.939 78.9841 832.328 79.1471 831.85 78.8701L830.992 78.374C830.514 78.098 830.35 77.4865 830.626 77.0081C830.902 76.5298 831.513 76.3658 831.992 76.6418L832.853 77.1396ZM839.26 82.0723C839.543 81.5978 839.388 80.984 838.914 80.7013L838.055 80.1906C837.58 79.9086 836.966 80.0651 836.684 80.54C836.402 81.0149 836.559 81.6284 837.034 81.9104L837.89 82.4193C838.364 82.7021 838.978 82.5466 839.26 82.0723ZM844.926 84.3344C845.397 84.6229 845.545 85.2385 845.257 85.7095C844.968 86.1804 844.353 86.3284 843.881 86.0398L843.029 85.5183C842.557 85.2306 842.408 84.6152 842.696 84.1438C842.983 83.6724 843.599 83.5234 844.07 83.811L844.926 84.3344ZM851.133 89.3726C851.427 88.9052 851.287 88.2877 850.819 87.9935L849.967 87.4584C849.5 87.165 848.882 87.3066 848.589 87.7745C848.295 88.2424 848.437 88.8596 848.905 89.153L849.754 89.6863C850.222 89.9805 850.839 89.84 851.133 89.3726ZM856.736 91.7675C857.2 92.0673 857.333 92.6864 857.033 93.1501C856.733 93.614 856.114 93.7468 855.65 93.447L854.805 92.9021C854.341 92.6031 854.207 91.9843 854.506 91.52C854.805 91.0557 855.424 90.9216 855.888 91.2207L856.736 91.7675ZM862.882 96.9972C863.188 96.5371 863.062 95.9165 862.602 95.6111L861.76 95.0531C861.3 94.7484 860.679 94.8749 860.375 95.3356C860.07 95.7963 860.196 96.4166 860.657 96.7213L861.496 97.2772C861.956 97.5828 862.577 97.4574 862.882 96.9972ZM868.419 99.524C868.876 99.8351 868.994 100.457 868.683 100.914C868.372 101.37 867.75 101.488 867.293 101.177L866.46 100.61C866.003 100.3 865.884 99.678 866.195 99.2211C866.505 98.7642 867.127 98.6453 867.584 98.9554L868.419 99.524ZM874.432 104.898C874.749 104.446 874.638 103.822 874.186 103.506L873.357 102.927C872.904 102.611 872.281 102.723 871.965 103.176C871.649 103.629 871.76 104.252 872.213 104.568L873.04 105.145C873.492 105.461 874.115 105.351 874.432 104.898ZM879.901 107.556C880.35 107.878 880.453 108.502 880.13 108.951C879.809 109.4 879.184 109.502 878.735 109.18L877.917 108.594C877.468 108.273 877.364 107.648 877.685 107.199C878.006 106.75 878.631 106.646 879.08 106.967L879.901 107.556ZM885.811 113.096C886.139 112.651 886.043 112.025 885.599 111.698L884.787 111.101C884.341 110.774 883.715 110.87 883.389 111.315C883.062 111.761 883.158 112.387 883.604 112.713L884.413 113.308C884.857 113.636 885.483 113.541 885.811 113.096ZM891.209 115.883C891.65 116.215 891.738 116.843 891.405 117.283C891.072 117.724 890.445 117.811 890.004 117.479L889.204 116.875C888.763 116.543 888.674 115.916 889.006 115.475C889.338 115.034 889.965 114.945 890.407 115.277L891.209 115.883ZM896.979 121.562C897.317 121.126 897.237 120.498 896.8 120.159L896.007 119.546C895.57 119.209 894.942 119.29 894.605 119.727C894.268 120.164 894.348 120.792 894.786 121.13L895.576 121.74C896.012 122.079 896.641 121.999 896.979 121.562ZM902.305 124.477C902.737 124.82 902.809 125.449 902.466 125.882C902.122 126.314 901.493 126.386 901.061 126.043L900.281 125.425C899.848 125.082 899.775 124.453 900.118 124.02C900.46 123.587 901.089 123.514 901.522 123.857L902.305 124.477ZM907.932 130.292C908.28 129.864 908.216 129.234 907.788 128.885L907.017 128.259C906.588 127.911 905.958 127.977 905.61 128.406C905.262 128.834 905.328 129.464 905.757 129.812L906.524 130.436C906.953 130.785 907.583 130.721 907.932 130.292ZM913.182 133.333C913.606 133.687 913.663 134.317 913.31 134.741C912.956 135.165 912.325 135.222 911.901 134.868L911.127 134.224C910.702 133.87 910.644 133.24 910.997 132.815C911.351 132.391 911.981 132.333 912.406 132.686L913.182 133.333ZM918.664 139.281C919.023 138.862 918.974 138.231 918.554 137.872L917.79 137.219C917.37 136.861 916.738 136.911 916.38 137.331C916.022 137.752 916.072 138.383 916.492 138.741L917.254 139.391C917.674 139.75 918.305 139.701 918.664 139.281ZM923.837 142.447C924.253 142.811 924.294 143.443 923.93 143.858C923.566 144.273 922.935 144.315 922.519 143.951L921.771 143.296C921.355 142.933 921.312 142.301 921.676 141.885C922.039 141.469 922.671 141.426 923.086 141.79L923.837 142.447ZM929.171 148.525C929.541 148.114 929.507 147.482 929.096 147.113L928.359 146.452C927.947 146.084 927.315 146.119 926.947 146.53C926.579 146.942 926.613 147.574 927.025 147.942L927.759 148.601C928.17 148.97 928.802 148.936 929.171 148.525ZM934.296 151.842C934.703 152.216 934.729 152.849 934.354 153.255C933.98 153.661 933.348 153.688 932.942 153.313L932.203 152.635C931.796 152.261 931.769 151.629 932.142 151.222C932.515 150.815 933.148 150.787 933.555 151.161L934.296 151.842ZM939.45 158.018C939.829 157.616 939.81 156.984 939.408 156.604L938.682 155.921C938.279 155.542 937.646 155.562 937.269 155.965C936.89 156.367 936.91 157 937.312 157.378L938.036 158.06C938.438 158.438 939.071 158.42 939.45 158.018ZM944.492 161.457C944.889 161.841 944.9 162.474 944.516 162.871C944.132 163.269 943.499 163.279 943.102 162.896L942.375 162.194C941.977 161.811 941.965 161.178 942.348 160.78C942.731 160.382 943.364 160.37 943.762 160.753L944.492 161.457ZM949.523 167.786C949.912 167.393 949.908 166.76 949.516 166.372L948.802 165.666C948.409 165.278 947.776 165.282 947.388 165.676C947 166.069 947.004 166.702 947.397 167.09L948.109 167.793C948.501 168.181 949.134 168.178 949.523 167.786ZM954.45 171.316C954.838 171.71 954.833 172.343 954.44 172.731C954.047 173.118 953.414 173.114 953.026 172.721L952.331 172.017C951.943 171.624 951.946 170.991 952.339 170.603C952.731 170.214 953.364 170.218 953.753 170.61L954.45 171.316ZM959.327 177.765C959.725 177.382 959.737 176.749 959.354 176.351L958.654 175.625C958.271 175.228 957.638 175.216 957.24 175.6C956.843 175.984 956.832 176.617 957.216 177.014L957.913 177.738C958.296 178.135 958.929 178.148 959.327 177.765ZM964.197 181.444C964.575 181.847 964.555 182.48 964.152 182.858C963.75 183.236 963.117 183.216 962.739 182.814L962.059 182.091C961.68 181.689 961.699 181.056 962.101 180.677C962.503 180.298 963.136 180.317 963.514 180.719L964.197 181.444ZM968.887 187.979C969.294 187.606 969.322 186.973 968.949 186.566L968.265 185.821C967.891 185.415 967.258 185.388 966.852 185.762C966.445 186.136 966.419 186.769 966.793 187.175L967.475 187.917C967.848 188.325 968.48 188.352 968.887 187.979ZM973.667 191.777C974.036 192.188 974 192.82 973.589 193.189C973.177 193.557 972.545 193.522 972.177 193.11L971.513 192.37C971.144 191.959 971.178 191.326 971.589 190.958C972 190.589 972.632 190.623 973.001 191.034L973.667 191.777ZM978.227 198.456C978.643 198.093 978.686 197.461 978.323 197.045L977.656 196.282C977.292 195.867 976.66 195.825 976.245 196.189C975.83 196.553 975.788 197.185 976.152 197.6L976.816 198.36C977.179 198.776 977.811 198.819 978.227 198.456ZM982.887 202.338C983.245 202.758 983.194 203.389 982.774 203.747C982.354 204.105 981.722 204.055 981.364 203.635L980.719 202.878C980.36 202.458 980.41 201.827 980.829 201.468C981.249 201.109 981.88 201.159 982.239 201.579L982.887 202.338ZM987.285 209.127C987.709 208.774 987.768 208.144 987.415 207.719L986.767 206.941C986.413 206.517 985.783 206.46 985.358 206.814C984.935 207.167 984.877 207.798 985.231 208.222L985.876 208.997C986.229 209.422 986.86 209.48 987.285 209.127ZM991.851 213.123C992.199 213.552 992.133 214.182 991.704 214.53C991.275 214.878 990.646 214.812 990.297 214.383L989.671 213.612C989.323 213.184 989.388 212.554 989.816 212.206C990.245 211.857 990.875 211.922 991.223 212.35L991.851 213.123ZM996.059 219.987C996.492 219.644 996.565 219.015 996.223 218.582L995.595 217.79C995.252 217.358 994.623 217.286 994.19 217.629C993.758 217.972 993.686 218.601 994.029 219.034L994.654 219.823C994.997 220.256 995.625 220.329 996.059 219.987ZM1000.55 224.129C1000.89 224.566 1000.81 225.194 1000.37 225.531C999.936 225.869 999.308 225.787 998.971 225.35L998.366 224.567C998.028 224.13 998.108 223.502 998.545 223.164C998.981 222.826 999.609 222.906 999.948 223.343L1000.55 224.129ZM1004.6 231.095C1005.04 230.764 1005.13 230.137 1004.79 229.695L1004.19 228.891C1003.86 228.45 1003.23 228.363 1002.79 228.696C1002.35 229.028 1002.26 229.655 1002.59 230.096L1003.2 230.897C1003.53 231.339 1004.16 231.427 1004.6 231.095ZM1008.97 235.315C1009.3 235.76 1009.2 236.386 1008.75 236.713C1008.31 237.039 1007.68 236.943 1007.36 236.498L1006.77 235.704C1006.45 235.259 1006.54 234.633 1006.99 234.306C1007.43 233.979 1008.06 234.074 1008.38 234.519L1008.97 235.315ZM1012.87 242.416C1013.32 242.095 1013.42 241.47 1013.1 241.021L1012.52 240.207C1012.19 239.758 1011.57 239.655 1011.12 239.977C1010.67 240.299 1010.57 240.923 1010.89 241.372L1011.47 242.184C1011.79 242.633 1012.42 242.737 1012.87 242.416ZM1017.14 246.745C1017.45 247.198 1017.34 247.821 1016.89 248.137C1016.44 248.452 1015.81 248.341 1015.5 247.888L1014.92 247.058C1014.6 246.606 1014.71 245.982 1015.17 245.666C1015.62 245.349 1016.24 245.46 1016.56 245.912L1017.14 246.745ZM1020.84 253.908C1021.3 253.598 1021.42 252.976 1021.11 252.519L1020.55 251.697C1020.24 251.24 1019.62 251.122 1019.16 251.433C1018.7 251.744 1018.59 252.366 1018.9 252.823L1019.45 253.642C1019.76 254.099 1020.39 254.218 1020.84 253.908ZM1025.01 258.345C1025.31 258.805 1025.19 259.426 1024.73 259.73C1024.27 260.035 1023.65 259.908 1023.34 259.448L1022.79 258.61C1022.48 258.15 1022.61 257.529 1023.07 257.224C1023.53 256.919 1024.15 257.044 1024.45 257.504L1025.01 258.345ZM1028.54 265.602C1029.01 265.303 1029.14 264.684 1028.84 264.22L1028.31 263.391C1028.01 262.927 1027.39 262.794 1026.93 263.094C1026.46 263.393 1026.33 264.012 1026.63 264.476L1027.16 265.302C1027.46 265.767 1028.08 265.901 1028.54 265.602ZM1032.6 270.144C1032.9 270.612 1032.76 271.229 1032.29 271.523C1031.82 271.816 1031.2 271.674 1030.91 271.206L1030.38 270.363C1030.09 269.895 1030.23 269.278 1030.69 268.984C1031.16 268.69 1031.78 268.831 1032.07 269.298L1032.6 270.144ZM1035.96 277.492C1036.43 277.204 1036.58 276.589 1036.3 276.118L1035.77 275.254C1035.48 274.783 1034.86 274.635 1034.39 274.923C1033.92 275.211 1033.77 275.827 1034.06 276.298L1034.59 277.159C1034.88 277.63 1035.49 277.779 1035.96 277.492ZM1039.92 282.139C1040.2 282.614 1040.04 283.227 1039.57 283.509C1039.09 283.791 1038.48 283.634 1038.2 283.159L1037.69 282.312C1037.41 281.837 1037.57 281.224 1038.04 280.941C1038.52 280.659 1039.13 280.814 1039.41 281.289L1039.92 282.139ZM1043.08 289.537C1043.56 289.261 1043.72 288.649 1043.44 288.171L1042.94 287.304C1042.67 286.826 1042.06 286.663 1041.58 286.94C1041.1 287.217 1040.94 287.828 1041.21 288.306L1041.71 289.17C1041.99 289.649 1042.6 289.813 1043.08 289.537ZM1046.9 294.25C1047.17 294.731 1047 295.341 1046.52 295.611C1046.04 295.881 1045.43 295.709 1045.16 295.227L1044.66 294.347C1044.39 293.866 1044.56 293.256 1045.04 292.985C1045.52 292.714 1046.13 292.885 1046.4 293.366L1046.9 294.25ZM1049.9 301.768C1050.39 301.504 1050.57 300.896 1050.3 300.411L1049.83 299.543C1049.57 299.059 1048.96 298.881 1048.47 299.146C1047.99 299.411 1047.81 300.018 1048.08 300.503L1048.55 301.368C1048.81 301.853 1049.42 302.032 1049.9 301.768ZM1053.62 306.581C1053.87 307.069 1053.69 307.675 1053.2 307.933C1052.71 308.191 1052.11 308.004 1051.85 307.516L1051.38 306.635C1051.12 306.147 1051.31 305.542 1051.8 305.283C1052.28 305.024 1052.89 305.209 1053.15 305.697L1053.62 306.581ZM1056.42 314.142C1056.91 313.89 1057.11 313.287 1056.85 312.796L1056.39 311.895C1056.14 311.404 1055.53 311.211 1055.04 311.464C1054.55 311.717 1054.36 312.321 1054.61 312.811L1055.07 313.709C1055.33 314.2 1055.93 314.394 1056.42 314.142ZM1060.02 319.054C1060.26 319.549 1060.06 320.149 1059.57 320.395C1059.07 320.641 1058.47 320.44 1058.23 319.946L1057.79 319.066C1057.54 318.572 1057.74 317.972 1058.24 317.725C1058.73 317.478 1059.33 317.678 1059.58 318.172L1060.02 319.054ZM1062.64 326.692C1063.14 326.452 1063.35 325.854 1063.11 325.357L1062.67 324.458C1062.43 323.961 1061.83 323.754 1061.34 323.995C1060.84 324.236 1060.63 324.834 1060.87 325.331L1061.31 326.226C1061.55 326.724 1062.15 326.932 1062.64 326.692ZM1066.12 331.702C1066.36 332.202 1066.14 332.797 1065.64 333.031C1065.14 333.265 1064.55 333.049 1064.31 332.549L1063.88 331.638C1063.65 331.138 1063.86 330.542 1064.36 330.307C1064.86 330.073 1065.46 330.288 1065.69 330.787L1066.12 331.702ZM1068.55 339.374C1069.05 339.146 1069.27 338.554 1069.05 338.051L1068.64 337.157C1068.41 336.654 1067.82 336.432 1067.31 336.66C1066.81 336.889 1066.59 337.482 1066.82 337.985L1067.22 338.876C1067.45 339.379 1068.04 339.602 1068.55 339.374ZM1071.91 344.48C1072.13 344.985 1071.9 345.575 1071.39 345.797C1070.89 346.019 1070.3 345.788 1070.08 345.282L1069.68 344.376C1069.46 343.87 1069.69 343.28 1070.19 343.058C1070.7 342.835 1071.29 343.065 1071.51 343.57L1071.91 344.48ZM1074.15 352.221C1074.66 352.006 1074.9 351.419 1074.68 350.911L1074.29 349.986C1074.07 349.478 1073.48 349.241 1072.98 349.457C1072.47 349.674 1072.23 350.261 1072.45 350.769L1072.84 351.691C1073.05 352.199 1073.64 352.437 1074.15 352.221ZM1077.37 357.382C1077.58 357.893 1077.34 358.477 1076.83 358.686C1076.32 358.895 1075.73 358.65 1075.52 358.139L1075.14 357.202C1074.93 356.692 1075.17 356.107 1075.68 355.897C1076.19 355.687 1076.78 355.931 1076.99 356.442L1077.37 357.382ZM1079.43 365.19C1079.94 364.987 1080.19 364.406 1079.99 363.892L1079.63 362.976C1079.42 362.463 1078.84 362.212 1078.33 362.415C1077.82 362.619 1077.57 363.2 1077.77 363.714L1078.13 364.627C1078.33 365.141 1078.92 365.393 1079.43 365.19ZM1082.53 370.442C1082.73 370.958 1082.47 371.536 1081.95 371.733C1081.44 371.929 1080.86 371.67 1080.66 371.154L1080.31 370.226C1080.11 369.71 1080.37 369.132 1080.88 368.934C1081.4 368.737 1081.98 368.995 1082.18 369.511L1082.53 370.442ZM1084.99 377.01C1085.18 377.529 1084.91 378.103 1084.39 378.293C1083.87 378.484 1083.3 378.217 1083.11 377.699L1082.76 376.756C1082.57 376.238 1082.84 375.663 1083.35 375.472C1083.87 375.281 1084.45 375.546 1084.64 376.064L1084.99 377.01ZM537.829 0.0435791C538.381 0.0367432 538.834 0.479004 538.841 1.03125C538.848 1.5835 538.406 2.03662 537.854 2.04333L536.872 2.05615C536.32 2.06384 535.866 1.62231 535.858 1.07019C535.851 0.517944 536.292 0.0639648 536.845 0.0563965L537.829 0.0435791ZM531.836 1.14673C531.822 0.594604 531.364 0.157837 530.812 0.171143L529.794 0.196655C529.242 0.21106 528.806 0.670166 528.821 1.22229C528.835 1.77441 529.294 2.21033 529.846 2.19604L530.86 2.17065C531.413 2.15723 531.849 1.69885 531.836 1.14673ZM523.816 0.382324C524.368 0.362427 524.832 0.793701 524.852 1.34558C524.872 1.89746 524.44 2.36108 523.889 2.3811L522.887 2.41821C522.335 2.43909 521.871 2.00867 521.85 1.45679C521.829 0.904907 522.259 0.440552 522.811 0.419556L523.816 0.382324ZM517.842 1.62939C517.816 1.07776 517.347 0.652222 516.795 0.678833L515.803 0.727539C515.251 0.755127 514.827 1.22461 514.854 1.77625C514.882 2.32776 515.352 2.75256 515.903 2.7251L516.892 2.67651C517.443 2.6499 517.869 2.18103 517.842 1.62939ZM509.796 1.05896C510.348 1.02576 510.822 1.44568 510.855 1.99695C510.888 2.54822 510.468 3.02209 509.917 3.0553L508.941 3.11511C508.39 3.14929 507.915 2.73022 507.881 2.17896C507.847 1.62769 508.266 1.1532 508.817 1.1189L509.796 1.05896ZM503.844 2.45068C503.804 1.89978 503.325 1.4856 502.774 1.52563L501.765 1.59973C501.214 1.64062 500.801 2.12036 500.842 2.67114C500.883 3.22192 501.362 3.63513 501.913 3.59424L502.919 3.52039C503.47 3.48035 503.884 3.00146 503.844 2.45068ZM495.775 2.07605C496.326 2.02942 496.81 2.43762 496.856 2.98804C496.903 3.53833 496.495 4.02222 495.944 4.06885L494.952 4.15393C494.401 4.20142 493.917 3.79395 493.869 3.24377C493.821 2.69348 494.229 2.20886 494.779 2.16125L495.775 2.07605ZM489.893 3.60852C489.839 3.05884 489.35 2.65637 488.801 2.70972L487.818 2.80579C487.268 2.86011 486.867 3.34961 486.921 3.89917C486.975 4.44885 487.465 4.85046 488.014 4.79614L488.994 4.70032C489.543 4.64709 489.946 4.1582 489.893 3.60852ZM481.85 3.42627C482.398 3.36633 482.892 3.76282 482.952 4.31177C483.012 4.86084 482.616 5.35449 482.067 5.41443L481.06 5.52539C480.511 5.5863 480.016 5.19067 479.956 4.64172C479.895 4.0929 480.29 3.59851 480.839 3.5376L481.85 3.42627ZM475.992 5.10254C475.925 4.55432 475.427 4.16394 474.878 4.23059L473.882 4.35254C473.334 4.42017 472.944 4.91931 473.012 5.46741C473.08 6.01562 473.579 6.40515 474.127 6.33752L475.12 6.21594C475.668 6.14929 476.059 5.65088 475.992 5.10254ZM467.889 5.12378C468.436 5.05042 468.939 5.43469 469.012 5.98206C469.086 6.52942 468.702 7.03259 468.154 7.10596L467.175 7.23804C466.628 7.31238 466.124 6.92896 466.05 6.38171C465.976 5.83435 466.359 5.33057 466.906 5.25623L467.889 5.12378ZM462.104 6.93823C462.023 6.39185 461.516 6.01367 460.969 6.09363L459.961 6.24219C459.415 6.32312 459.038 6.83167 459.119 7.37793C459.2 7.92432 459.708 8.30151 460.255 8.22058L461.259 8.07263C461.806 7.99255 462.184 7.48474 462.104 6.93823ZM454.032 7.15271C454.578 7.06604 455.09 7.43787 455.177 7.9834C455.264 8.52881 454.892 9.04126 454.346 9.12793L453.356 9.28601C452.812 9.37366 452.298 9.00269 452.21 8.4574C452.123 7.91211 452.494 7.39905 453.039 7.3114L454.032 7.15271ZM448.277 9.1106C448.184 8.56628 447.667 8.20068 447.123 8.29395L446.144 8.46265C445.6 8.55688 445.235 9.07446 445.329 9.61865C445.423 10.1628 445.941 10.5275 446.485 10.4332L447.46 10.2653C448.005 10.1719 448.37 9.65491 448.277 9.1106ZM440.197 9.52527C440.74 9.42529 441.261 9.78442 441.361 10.3276C441.461 10.8708 441.102 11.3922 440.559 11.4922L439.561 11.6769C439.018 11.7778 438.496 11.4196 438.395 10.8766C438.294 10.3336 438.652 9.81152 439.195 9.71057L440.197 9.52527ZM434.518 11.6184C434.412 11.0765 433.886 10.7236 433.344 10.8303L432.357 11.0253C431.816 11.1328 431.464 11.6592 431.572 12.2008C431.679 12.7426 432.206 13.0945 432.747 12.9869L433.73 12.7926C434.272 12.686 434.625 12.1603 434.518 11.6184ZM426.433 12.2345C426.973 12.1212 427.503 12.4675 427.616 13.0081C427.729 13.5486 427.383 14.0786 426.843 14.1919L425.875 14.3956C425.335 14.5098 424.805 14.1644 424.69 13.624C424.576 13.0837 424.921 12.5531 425.462 12.4388L426.433 12.2345ZM420.789 14.4703C420.668 13.9313 420.134 13.5914 419.595 13.7113L418.604 13.9327C418.065 14.0536 417.726 14.5885 417.847 15.1273C417.968 15.6663 418.502 16.0051 419.042 15.8843L420.029 15.6636C420.568 15.5437 420.908 15.0095 420.789 14.4703ZM412.745 15.2793C413.282 15.1527 413.82 15.486 413.947 16.0236C414.073 16.5612 413.74 17.0995 413.203 17.2261L412.23 17.4558C411.693 17.5833 411.154 17.251 411.027 16.7135C410.899 16.1761 411.231 15.6372 411.769 15.5098L412.745 15.2793ZM407.137 17.6578C407.004 17.1218 406.461 16.7953 405.926 16.9283L404.966 17.1676C404.43 17.3016 404.104 17.8446 404.239 18.3804C404.373 18.9161 404.916 19.2418 405.452 19.1078L406.408 18.8694C406.944 18.7363 407.27 18.1938 407.137 17.6578ZM399.138 18.6583C399.672 18.5187 400.219 18.8386 400.358 19.3729C400.498 19.9072 400.178 20.4536 399.644 20.5934L398.669 20.849C398.135 20.9896 397.588 20.6708 397.448 20.1366C397.307 19.6025 397.626 19.0555 398.16 18.9149L399.138 18.6583ZM393.57 21.1796C393.424 20.6471 392.874 20.3339 392.341 20.4802L391.38 20.7451C390.848 20.8923 390.535 21.4431 390.683 21.9755C390.83 22.5078 391.38 22.8199 391.913 22.6727L392.871 22.4088C393.403 22.2625 393.716 21.7122 393.57 21.1796ZM385.62 22.3706C386.15 22.2178 386.704 22.5242 386.857 23.0549C387.01 23.5857 386.704 24.1398 386.173 24.2925L385.198 24.5741C384.667 24.7278 384.113 24.4224 383.959 23.8918C383.806 23.3615 384.111 22.8068 384.642 22.6531L385.62 22.3706ZM380.135 25.0217C379.976 24.4929 379.418 24.1934 378.889 24.3527L377.928 24.6431C377.399 24.8033 377.101 25.3617 377.261 25.8903C377.421 26.4187 377.979 26.7173 378.508 26.5571L379.466 26.2677C379.995 26.1084 380.294 25.5505 380.135 25.0217ZM372.152 26.4277C372.678 26.262 373.24 26.5546 373.406 27.0814C373.572 27.6082 373.279 28.1697 372.752 28.3354L371.812 28.6324C371.285 28.7992 370.723 28.5076 370.556 27.981C370.39 27.4545 370.681 26.8925 371.208 26.7258L372.152 26.4277ZM366.753 29.2073C366.581 28.6825 366.016 28.3969 365.491 28.5691L364.532 28.8846C364.008 29.0579 363.723 29.6234 363.896 30.1478C364.07 30.6722 364.635 30.957 365.16 30.7838L366.115 30.4694C366.639 30.297 366.925 29.7321 366.753 29.2073ZM358.866 30.7891C359.389 30.6104 359.957 30.8892 360.136 31.4117C360.314 31.9343 360.036 32.5028 359.513 32.6815L358.575 33.0031C358.053 33.1826 357.484 32.9048 357.305 32.3824C357.125 31.8602 357.403 31.2913 357.925 31.1117L358.866 30.7891ZM353.513 33.7086C353.328 33.1882 352.756 32.9165 352.236 33.1016L351.282 33.4418C350.762 33.6278 350.491 34.2001 350.677 34.7201C350.863 35.2401 351.436 35.5109 351.956 35.325L352.906 34.9858C353.426 34.8008 353.698 34.2289 353.513 33.7086ZM345.643 35.4923C346.161 35.3009 346.736 35.5656 346.928 36.0836C347.12 36.6017 346.854 37.1769 346.337 37.3683L345.404 37.7139C344.887 37.9062 344.311 37.6425 344.119 37.1249C343.926 36.6072 344.19 36.0315 344.708 35.8391L345.643 35.4923ZM340.379 38.5366C340.182 38.021 339.604 37.7633 339.088 37.9612L338.141 38.3253C337.625 38.524 337.369 39.1029 337.568 39.6182C337.767 40.1334 338.345 40.3901 338.86 40.1914L339.804 39.8285C340.32 39.6306 340.578 39.0522 340.379 38.5366ZM332.571 40.5071C333.084 40.303 333.666 40.5536 333.87 41.0668C334.074 41.58 333.823 42.1614 333.31 42.3655L332.385 42.7344C331.873 42.9395 331.291 42.6899 331.085 42.1771C330.88 41.6642 331.13 41.0823 331.643 40.8773L332.571 40.5071ZM327.358 43.6899C327.147 43.1793 326.563 42.9359 326.053 43.1464L325.115 43.5338C324.604 43.7451 324.362 44.3301 324.573 44.8403C324.785 45.3506 325.37 45.5929 325.88 45.3816L326.814 44.9955C327.325 44.7852 327.568 44.2006 327.358 43.6899ZM319.574 45.8627C320.082 45.646 320.669 45.8822 320.886 46.3901C321.103 46.8982 320.867 47.4856 320.359 47.7023L319.443 48.0938C318.936 48.3114 318.348 48.0762 318.13 47.5686C317.913 47.061 318.147 46.4731 318.655 46.2555L319.574 45.8627ZM314.455 49.167C314.232 48.6616 313.642 48.4327 313.136 48.6556L312.209 49.0654C311.705 49.2892 311.477 49.88 311.7 50.3849C311.924 50.8898 312.515 51.1177 313.02 50.8939L313.943 50.4855C314.449 50.2626 314.678 49.6722 314.455 49.167ZM306.739 51.5245C307.241 51.2954 307.834 51.5171 308.063 52.0197C308.292 52.5222 308.071 53.1152 307.568 53.3444L306.664 53.7574C306.162 53.9874 305.568 53.7668 305.338 53.2646C305.109 52.7626 305.329 52.1691 305.832 51.9391L306.739 51.5245ZM301.714 54.9476C301.479 54.448 300.883 54.2335 300.383 54.4688L299.47 54.8999C298.97 55.136 298.757 55.7322 298.993 56.2314C299.229 56.7307 299.825 56.944 300.325 56.7079L301.235 56.2783C301.735 56.0431 301.949 55.4473 301.714 54.9476ZM294.07 57.4877C294.567 57.2463 295.166 57.4535 295.407 57.9503C295.648 58.447 295.441 59.0454 294.944 59.2867L294.053 59.7205C293.557 59.9625 292.958 59.7565 292.716 59.2601C292.474 58.7638 292.68 58.165 293.176 57.923L294.07 57.4877ZM289.103 61.0466C288.856 60.5529 288.255 60.3531 287.761 60.6006L286.862 61.0519C286.369 61.3002 286.17 61.9014 286.418 62.3947C286.667 62.8881 287.268 63.0867 287.761 62.8385L288.657 62.3887C289.151 62.1412 289.351 61.5404 289.103 61.0466ZM281.496 63.7877C281.986 63.5343 282.589 63.7267 282.843 64.2174C283.097 64.708 282.904 65.3113 282.414 65.5647L281.538 66.0179C281.047 66.2722 280.444 66.0809 280.189 65.5906C279.936 65.1003 280.126 64.4968 280.617 64.2426L281.496 63.7877ZM276.665 67.4419C276.406 66.9543 275.8 66.7693 275.312 67.0287L274.43 67.499C273.943 67.7593 273.759 68.3651 274.02 68.8523C274.28 69.3394 274.886 69.5233 275.373 69.2631L276.252 68.7944C276.739 68.535 276.924 67.9294 276.665 67.4419ZM269.136 70.363C269.621 70.0977 270.229 70.2753 270.494 70.7596C270.759 71.244 270.582 71.8518 270.097 72.1171L269.215 72.6011C268.731 72.8672 268.124 72.6907 267.857 72.2068C267.591 71.7229 267.768 71.1149 268.251 70.8486L269.136 70.363ZM264.368 74.1501C264.097 73.6691 263.487 73.4989 263.005 73.7701L262.142 74.2582C261.661 74.5302 261.492 75.1404 261.764 75.621C262.036 76.1016 262.646 76.2706 263.127 75.9987L263.988 75.5123C264.469 75.2412 264.639 74.6312 264.368 74.1501ZM256.921 77.2496C257.399 76.9725 258.011 77.1353 258.288 77.6129C258.565 78.0907 258.402 78.7026 257.925 78.9797L257.063 79.4805C256.585 79.7584 255.974 79.5968 255.696 79.1195C255.417 78.6423 255.579 78.0302 256.057 77.7522L256.921 77.2496ZM252.217 81.1694C251.935 80.6951 251.321 80.5399 250.846 80.8229L249.981 81.3397C249.508 81.6234 249.354 82.2375 249.637 82.7114C249.921 83.1852 250.535 83.3394 251.009 83.0555L251.871 82.5405C252.345 82.2576 252.5 81.6437 252.217 81.1694ZM244.856 84.4454C245.327 84.1567 245.943 84.3044 246.231 84.7753C246.52 85.2461 246.373 85.8618 245.902 86.1505L245.062 86.6667C244.591 86.9562 243.975 86.8096 243.686 86.3392C243.396 85.8689 243.543 85.2529 244.013 84.9635L244.856 84.4454ZM240.256 88.4746C239.962 88.0073 239.345 87.8672 238.877 88.1616L238.036 88.6931C237.569 88.9884 237.43 89.6061 237.725 90.0729C238.02 90.5396 238.638 90.6786 239.104 90.3834L239.943 89.8538C240.411 89.5593 240.551 88.9419 240.256 88.4746ZM232.984 91.9253C233.448 91.6251 234.067 91.7578 234.367 92.2214C234.667 92.6851 234.535 93.3042 234.071 93.6042L233.234 94.147C232.771 94.4479 232.151 94.3163 231.851 93.8531C231.55 93.39 231.681 92.7708 232.145 92.4698L232.984 91.9253ZM228.49 96.0613C228.185 95.6013 227.563 95.4763 227.104 95.782L226.267 96.3392C225.808 96.6458 225.684 97.2667 225.99 97.7261C226.296 98.1855 226.917 98.3094 227.377 98.0029L228.211 97.4476C228.671 97.142 228.796 96.5212 228.49 96.0613ZM221.31 99.6841C221.766 99.3728 222.388 99.4902 222.699 99.9465C223.01 100.403 222.893 101.025 222.437 101.336L221.606 101.904C221.151 102.216 220.529 102.099 220.216 101.644C219.904 101.188 220.021 100.566 220.477 100.254L221.31 99.6841ZM216.923 103.925C216.606 103.472 215.982 103.362 215.53 103.679L214.702 104.26C214.25 104.578 214.141 105.202 214.459 105.653C214.776 106.105 215.4 106.214 215.852 105.896L216.677 105.317C217.13 105.001 217.24 104.377 216.923 103.925ZM209.802 107.743C210.25 107.42 210.875 107.523 211.198 107.971C211.52 108.42 211.418 109.044 210.969 109.367L210.167 109.944C209.719 110.267 209.094 110.166 208.771 109.718C208.448 109.27 208.549 108.645 208.997 108.322L209.802 107.743ZM205.524 112.085C205.197 111.641 204.571 111.546 204.126 111.874L203.327 112.464C202.883 112.792 202.79 113.419 203.118 113.863C203.447 114.307 204.073 114.4 204.517 114.072L205.313 113.484C205.758 113.156 205.852 112.53 205.524 112.085ZM198.503 116.073C198.943 115.739 199.57 115.827 199.904 116.267C200.237 116.708 200.15 117.335 199.709 117.668L198.919 118.266C198.479 118.6 197.852 118.514 197.519 118.074C197.185 117.634 197.271 117.007 197.71 116.673L198.503 116.073ZM194.37 120.489C194.032 120.052 193.403 119.973 192.967 120.311L192.182 120.921C191.746 121.26 191.667 121.889 192.007 122.324C192.346 122.76 192.974 122.839 193.41 122.5L194.192 121.892C194.629 121.553 194.708 120.925 194.37 120.489ZM187.45 124.642C187.882 124.299 188.512 124.37 188.855 124.803C189.199 125.235 189.127 125.864 188.695 126.208L187.92 126.824C187.489 127.169 186.859 127.098 186.515 126.666C186.171 126.234 186.242 125.605 186.673 125.261L187.45 124.642ZM183.428 129.155C183.08 128.727 182.45 128.663 182.021 129.012L181.238 129.651C180.811 130.001 180.748 130.631 181.097 131.058C181.447 131.486 182.077 131.549 182.504 131.199L183.285 130.562C183.713 130.213 183.777 129.583 183.428 129.155ZM176.614 133.473C177.038 133.118 177.668 133.175 178.022 133.599C178.377 134.023 178.32 134.653 177.896 135.008L177.126 135.652C176.703 136.007 176.072 135.951 175.717 135.528C175.362 135.105 175.418 134.474 175.841 134.119L176.614 133.473ZM172.672 138.107C172.313 137.688 171.682 137.639 171.262 137.998L170.5 138.651C170.081 139.011 170.033 139.643 170.393 140.062C170.753 140.481 171.384 140.529 171.803 140.169L172.562 139.517C172.982 139.158 173.031 138.527 172.672 138.107ZM165.934 142.615C166.349 142.251 166.981 142.292 167.345 142.707C167.709 143.123 167.668 143.754 167.253 144.119L166.505 144.776C166.09 145.141 165.458 145.101 165.094 144.686C164.729 144.272 164.769 143.64 165.184 143.275L165.934 142.615ZM162.108 147.343C161.739 146.932 161.106 146.898 160.696 147.268L159.957 147.933C159.547 148.303 159.515 148.935 159.884 149.345C160.254 149.755 160.887 149.788 161.297 149.418L162.033 148.755C162.443 148.386 162.477 147.754 162.108 147.343ZM155.514 151.983C155.92 151.609 156.553 151.635 156.927 152.041C157.301 152.447 157.275 153.08 156.869 153.454L156.133 154.133C155.728 154.508 155.095 154.483 154.72 154.077C154.345 153.672 154.37 153.039 154.776 152.664L155.514 151.983ZM151.805 156.801C151.426 156.399 150.792 156.381 150.391 156.76L149.667 157.445C149.266 157.825 149.248 158.458 149.628 158.859C150.008 159.26 150.641 159.277 151.042 158.897L151.764 158.214C152.166 157.835 152.184 157.202 151.805 156.801ZM145.326 161.598C145.723 161.214 146.356 161.225 146.74 161.622C147.124 162.019 147.113 162.652 146.716 163.036L145.997 163.733C145.6 164.118 144.967 164.108 144.583 163.712C144.198 163.315 144.208 162.682 144.604 162.298L145.326 161.598ZM141.705 166.534C141.315 166.142 140.683 166.139 140.29 166.528L139.583 167.229C139.192 167.618 139.19 168.252 139.58 168.643C139.969 169.035 140.602 169.037 140.994 168.647L141.698 167.948C142.09 167.56 142.093 166.927 141.705 166.534ZM135.345 171.487C135.732 171.094 136.365 171.089 136.759 171.477C137.152 171.864 137.157 172.498 136.77 172.891L136.07 173.602C135.683 173.996 135.05 174.002 134.656 173.615C134.262 173.228 134.256 172.595 134.643 172.201L135.345 171.487ZM131.873 176.479C131.475 176.096 130.842 176.109 130.459 176.507L129.764 177.231C129.382 177.63 129.395 178.263 129.794 178.645C130.193 179.027 130.826 179.014 131.208 178.615L131.901 177.893C132.284 177.495 132.271 176.862 131.873 176.479ZM125.635 181.585C126.013 181.182 126.646 181.162 127.048 181.54C127.451 181.918 127.471 182.551 127.093 182.954L126.408 183.685C126.03 184.089 125.397 184.11 124.994 183.733C124.591 183.355 124.57 182.723 124.947 182.319L125.635 181.585ZM122.256 186.691C121.849 186.318 121.216 186.346 120.843 186.753L120.164 187.496C119.792 187.904 119.821 188.536 120.229 188.909C120.637 189.281 121.269 189.252 121.642 188.844L122.318 188.104C122.691 187.697 122.664 187.064 122.256 186.691ZM116.143 191.948C116.511 191.536 117.143 191.501 117.555 191.869C117.967 192.237 118.002 192.869 117.634 193.281L116.967 194.028C116.6 194.441 115.968 194.477 115.556 194.11C115.143 193.742 115.106 193.11 115.474 192.698L116.143 191.948ZM112.916 197.104C112.5 196.741 111.868 196.784 111.505 197.2L110.847 197.956C110.485 198.373 110.529 199.004 110.946 199.366C111.363 199.729 111.995 199.685 112.357 199.268L113.012 198.515C113.375 198.099 113.332 197.467 112.916 197.104ZM106.931 202.509C107.289 202.089 107.92 202.038 108.341 202.396C108.761 202.754 108.812 203.385 108.454 203.805L107.811 204.562C107.454 204.984 106.823 205.035 106.401 204.678C105.98 204.321 105.929 203.69 106.286 203.269L106.931 202.509ZM103.829 207.743C103.404 207.391 102.773 207.449 102.42 207.874L101.78 208.646C101.428 209.071 101.488 209.702 101.913 210.054C102.339 210.406 102.969 210.347 103.321 209.921L103.959 209.152C104.312 208.727 104.253 208.096 103.829 207.743ZM97.9746 213.294C98.3223 212.865 98.9521 212.799 99.3809 213.146C99.8101 213.494 99.8765 214.124 99.5283 214.553L98.8979 215.333C98.5508 215.763 97.9214 215.83 97.4917 215.483C97.062 215.136 96.9946 214.506 97.3418 214.077L97.9746 213.294ZM94.998 218.605C94.5645 218.262 93.936 218.336 93.5933 218.769L92.9766 219.551C92.6348 219.985 92.7095 220.614 93.1436 220.955C93.5776 221.297 94.2061 221.222 94.5479 220.788L95.1626 220.009C95.5049 219.576 95.4312 218.947 94.998 218.605ZM89.2783 224.298C89.6152 223.861 90.2432 223.78 90.6807 224.117C91.1182 224.454 91.1992 225.082 90.8623 225.519L90.2505 226.314C89.9141 226.752 89.2866 226.835 88.8486 226.498C88.4106 226.162 88.3281 225.534 88.6646 225.096L89.2783 224.298ZM86.4287 229.683C85.9873 229.351 85.3604 229.44 85.0288 229.881L84.4272 230.683C84.0962 231.125 84.186 231.752 84.6284 232.083C85.0703 232.414 85.6968 232.324 86.0278 231.882L86.6274 231.083C86.9595 230.641 86.8706 230.015 86.4287 229.683ZM80.8467 235.518C81.1729 235.072 81.7988 234.975 82.2441 235.302C82.6899 235.628 82.7866 236.254 82.46 236.7L81.8677 237.509C81.542 237.955 80.9165 238.053 80.4707 237.727C80.0244 237.402 79.9268 236.776 80.2524 236.33L80.8467 235.518ZM78.1265 240.974C77.6768 240.653 77.0522 240.757 76.7314 241.206L76.1523 242.018C75.8325 242.468 75.9375 243.093 76.3877 243.413C76.8374 243.733 77.4619 243.628 77.7822 243.178L78.3589 242.368C78.6802 241.919 78.5757 241.294 78.1265 240.974ZM72.6846 246.947C73 246.493 73.6235 246.382 74.0767 246.697C74.5298 247.013 74.6416 247.636 74.3262 248.089L73.7549 248.911C73.4404 249.365 72.8174 249.478 72.3633 249.164C71.9097 248.849 71.7969 248.226 72.1113 247.772L72.6846 246.947ZM70.0952 252.472C69.6382 252.162 69.0161 252.281 68.7061 252.739L68.1465 253.566C67.8374 254.023 67.958 254.645 68.4155 254.954C68.873 255.263 69.4946 255.143 69.8037 254.685L70.3618 253.861C70.6714 253.404 70.5522 252.782 70.0952 252.472ZM64.8213 258.545C65.1255 258.084 65.7461 257.957 66.2065 258.262C66.6675 258.566 66.7944 259.186 66.4902 259.647L65.9424 260.478C65.6387 260.939 65.019 261.067 64.5576 260.764C64.0962 260.46 63.9683 259.84 64.2715 259.379L64.8213 258.545ZM62.3633 264.137C61.8984 263.839 61.2798 263.973 60.981 264.437L60.4399 265.281C60.1421 265.746 60.2773 266.365 60.7427 266.662C61.2075 266.96 61.8262 266.825 62.124 266.36L62.6636 265.519C62.9619 265.055 62.8276 264.436 62.3633 264.137ZM57.2119 270.379C57.5049 269.911 58.1216 269.769 58.5898 270.062C59.0581 270.355 59.2002 270.972 58.9072 271.44L58.3784 272.286C58.0864 272.755 57.4697 272.898 57.001 272.606C56.5322 272.314 56.3892 271.697 56.6812 271.228L57.2119 270.379ZM54.9102 275.999C54.4385 275.712 53.8232 275.862 53.5361 276.333L53.0151 277.19C52.729 277.662 52.8794 278.277 53.3516 278.564C53.8237 278.85 54.439 278.7 54.7251 278.227L55.2441 277.374C55.5317 276.902 55.3818 276.287 54.9102 275.999ZM49.9307 282.335C50.2124 281.86 50.8257 281.703 51.3008 281.984C51.7759 282.266 51.9331 282.879 51.6514 283.354L51.145 284.211C50.8643 284.687 50.2515 284.844 49.7754 284.564C49.2998 284.283 49.1421 283.67 49.4229 283.194L49.9307 282.335ZM47.7407 288.054C47.2622 287.778 46.6504 287.943 46.375 288.422L45.876 289.29C45.6011 289.769 45.7666 290.38 46.2456 290.655C46.7246 290.929 47.3359 290.764 47.6108 290.285L48.1079 289.42C48.3838 288.941 48.2192 288.33 47.7407 288.054ZM42.9131 294.517C43.1826 294.035 43.792 293.863 44.2739 294.133C44.7559 294.403 44.9277 295.012 44.6582 295.494L44.1704 296.367C43.9014 296.85 43.2925 297.023 42.8101 296.754C42.3276 296.485 42.1548 295.876 42.4238 295.393L42.9131 294.517ZM40.8799 300.259C40.3945 299.995 39.7876 300.174 39.5234 300.659L39.0454 301.541C38.7822 302.026 38.9624 302.633 39.4482 302.896C39.9341 303.159 40.541 302.979 40.8037 302.493L41.2808 301.615C41.5444 301.13 41.3652 300.522 40.8799 300.259ZM36.2075 306.847C36.4653 306.358 37.0703 306.171 37.5586 306.429C38.0469 306.687 38.2339 307.292 37.9761 307.781L37.5093 308.666C37.2524 309.155 36.6475 309.343 36.1587 309.085C35.6699 308.828 35.4819 308.224 35.7393 307.735L36.2075 306.847ZM34.3306 312.606C33.8389 312.354 33.2363 312.549 32.9844 313.04L32.5288 313.93C32.2778 314.422 32.4731 315.025 32.9648 315.276C33.457 315.527 34.0591 315.332 34.3105 314.84L34.7642 313.953C35.0161 313.461 34.8218 312.858 34.3306 312.606ZM29.8149 319.316C30.061 318.822 30.6611 318.62 31.1558 318.866C31.6504 319.112 31.8521 319.712 31.606 320.207L31.1621 321.102C30.917 321.597 30.3169 321.799 29.8223 321.554C29.3271 321.309 29.1245 320.709 29.3696 320.214L29.8149 319.316ZM28.0552 325.17C27.5581 324.93 26.96 325.139 26.7202 325.636L26.2861 326.539C26.0474 327.037 26.2573 327.634 26.7549 327.873C27.2529 328.112 27.8506 327.902 28.0894 327.404L28.522 326.505C28.7617 326.007 28.5527 325.41 28.0552 325.17ZM23.7197 331.96C23.9536 331.46 24.5488 331.243 25.0493 331.477C25.5493 331.711 25.7656 332.306 25.5322 332.806L25.1099 333.713C24.877 334.214 24.2822 334.431 23.7812 334.198C23.2803 333.965 23.0635 333.37 23.2959 332.87L23.7197 331.96ZM22.1172 337.827C21.6143 337.599 21.0215 337.823 20.7939 338.326L20.3828 339.237C20.1562 339.741 20.3804 340.333 20.8843 340.56C21.3877 340.786 21.98 340.562 22.2065 340.058L22.6162 339.15C22.8438 338.647 22.6206 338.054 22.1172 337.827ZM17.9438 344.733C18.1655 344.227 18.7549 343.996 19.2612 344.218C19.7671 344.439 19.9976 345.029 19.7764 345.535L19.3774 346.448C19.1572 346.954 18.5679 347.186 18.0615 346.966C17.5552 346.745 17.3232 346.156 17.5439 345.65L17.9438 344.733ZM16.4805 350.649C15.9717 350.434 15.3848 350.672 15.1699 351.181L14.7803 352.104C14.5659 352.613 14.8052 353.199 15.314 353.414C15.8232 353.628 16.4092 353.389 16.6235 352.88L17.0117 351.96C17.2271 351.451 16.9888 350.865 16.4805 350.649ZM12.4722 357.669C12.6812 357.158 13.2651 356.913 13.7764 357.122C14.2876 357.331 14.5327 357.914 14.3237 358.426L13.9473 359.35C13.7393 359.862 13.1558 360.108 12.644 359.9C12.1323 359.692 11.8862 359.109 12.0942 358.597L12.4722 357.669ZM11.1494 363.634C10.6353 363.431 10.0547 363.684 9.85205 364.198L9.48535 365.13C9.28369 365.644 9.53711 366.225 10.0513 366.426C10.5654 366.628 11.1455 366.375 11.3472 365.86L11.7129 364.931C11.9155 364.417 11.6631 363.836 11.1494 363.634ZM7.3252 370.724C7.52148 370.208 8.09912 369.948 8.61523 370.145C9.13135 370.341 9.39062 370.918 9.19482 371.435L8.84082 372.367C8.64551 372.884 8.06836 373.145 7.55176 372.949C7.03516 372.754 6.7749 372.177 6.97021 371.66L7.3252 370.724ZM6.15869 376.693C5.64014 376.503 5.06592 376.77 4.87598 377.288L4.53223 378.229C4.34326 378.748 4.61084 379.322 5.12988 379.511C5.64893 379.7 6.22266 379.432 6.41162 378.913L6.75391 377.976C6.94385 377.457 6.67725 376.883 6.15869 376.693ZM2.50439 383.891C2.68799 383.37 3.25879 383.096 3.77979 383.28C4.30078 383.463 4.57422 384.034 4.39062 384.555L4.05957 385.497C3.87695 386.018 3.30664 386.293 2.78516 386.11C2.26416 385.928 1.98975 385.357 2.17236 384.836L2.50439 383.891ZM1.479 389.903C0.955566 389.726 0.388184 390.007 0.210938 390.53L0.0527344 390.998C-0.124023 391.521 0.157227 392.089 0.680664 392.265C1.20361 392.442 1.771 392.161 1.94775 391.638L2.10547 391.171C2.28271 390.648 2.00195 390.08 1.479 389.903Z" transform="translate(0.00341797)" fill="url(#paint0_linear)"/>
<path opacity="0.5" fill-rule="evenodd" clip-rule="evenodd" d="M24.9888 6.40186C24.9888 6.29871 24.9658 6.19556 24.9199 6.09814C24.8281 5.9032 24.6504 5.77148 24.4556 5.73132L12.7808 0.0687256C12.5918 -0.0229492 12.3682 -0.0229492 12.1792 0.0687256L0.389648 5.78296C0.160645 5.89185 0.0112305 6.12109 0 6.37891V6.38464V6.40759V20.7473C0 21.011 0.148926 21.2517 0.389648 21.3663L12.1792 27.0804L12.1841 27.0808L12.1904 27.0862C12.2075 27.0919 12.2251 27.0977 12.2422 27.1091L12.2495 27.1113C12.2534 27.1129 12.2583 27.1149 12.2651 27.1149L12.3164 27.1321C12.3193 27.1321 12.3223 27.1335 12.3252 27.135C12.3281 27.1364 12.3311 27.1378 12.334 27.1378C12.3428 27.1406 12.3525 27.1421 12.3623 27.1436C12.3726 27.145 12.3828 27.1465 12.3911 27.1493H12.4082C12.4199 27.1493 12.4326 27.1508 12.4453 27.1521C12.4585 27.1536 12.4717 27.155 12.4829 27.155C12.5059 27.155 12.5342 27.155 12.5571 27.1493H12.5747C12.5918 27.1493 12.6147 27.1436 12.6318 27.1378C12.6348 27.1378 12.6377 27.1364 12.6406 27.135C12.6431 27.1335 12.646 27.1321 12.6489 27.1321L12.7007 27.1149L12.708 27.1127C12.7119 27.1111 12.7168 27.1091 12.7236 27.1091C12.7407 27.1034 12.7578 27.0977 12.7749 27.0862L12.7803 27.0857L12.7866 27.0804L24.6104 21.3491C24.8452 21.2345 25 20.9938 25 20.7302V6.41907C24.9888 6.41333 24.9888 6.40759 24.9888 6.40186ZM12.4771 1.45007L22.7017 6.40771L18.936 8.23596L8.71143 3.27832L12.4771 1.45007ZM2.25244 6.40759L12.4771 11.3651L17.3604 8.99817L7.13574 4.04053L2.25244 6.40759ZM1.37549 7.51379L11.7891 12.5631V25.3611L1.37549 20.3118V7.51379ZM13.165 12.5631V25.3611L23.6133 20.2888V7.49084L19.4292 9.51978V13.5374C19.4292 13.9156 19.1201 14.2251 18.7417 14.2251C18.3633 14.2251 18.0537 13.9156 18.0537 13.5374V10.1903L13.165 12.5631Z" transform="translate(61 232)" fill="white"/>
<g opacity="0.498884">
<path fill-rule="evenodd" clip-rule="evenodd" d="M1.75781 0H23.2422C24.2139 0 25 0.786133 25 1.75781V16.9922C25 17.9639 24.2139 18.75 23.2422 18.75H1.75781C0.786133 18.75 0 17.9639 0 16.9922V1.75781C0 0.786133 0.786133 0 1.75781 0ZM15.1367 10.2539C14.6514 10.2539 14.2578 9.86035 14.2578 9.375C14.2578 8.88965 14.6514 8.49609 15.1367 8.49609C15.6221 8.49609 16.0156 8.88965 16.0156 9.375C16.0156 9.86035 15.6221 10.2539 15.1367 10.2539ZM23.2422 10.7422H12.6953V8.00781H23.2422V10.7422ZM12.6953 6.25H23.2422V1.75781H1.75781V16.9922H23.2422V12.5H12.6953C11.7236 12.5 10.9375 11.7139 10.9375 10.7422V8.00781C10.9375 7.03613 11.7236 6.25 12.6953 6.25Z" transform="translate(1004 236)" fill="white"/>
</g>
<g opacity="0.7">
<path fill-rule="evenodd" clip-rule="evenodd" d="M0 4C0 1.79395 1.79395 0 4 0C6.20605 0 8 1.79395 8 4C8 6.20605 6.20605 8 4 8C1.79395 8 0 6.20605 0 4ZM1.3335 4C1.3335 5.47058 2.5293 6.66663 4 6.66663C5.4707 6.66663 6.66699 5.47058 6.66699 4C6.66699 2.52942 5.4707 1.33337 4 1.33337C2.5293 1.33337 1.3335 2.5293 1.3335 4Z" transform="translate(138.333 161.708)" fill="white"/>
<path fill-rule="evenodd" clip-rule="evenodd" d="M0 4C0 1.79395 1.79395 0 4 0C6.20605 0 8 1.79395 8 4C8 6.20605 6.20605 8 4 8C1.79395 8 0 6.20605 0 4ZM1.3335 4C1.3335 5.47058 2.5293 6.66663 4 6.66663C5.4707 6.66663 6.66699 5.47058 6.66699 4C6.66699 2.52942 5.4707 1.33337 4 1.33337C2.5293 1.33337 1.3335 2.5293 1.3335 4Z" transform="translate(161 161.708)" fill="white"/>
<path d="M14.5606 9.63937L8.56063 0.306016C8.43797 0.115312 8.22664 0 7.99992 0H0.666641C0.297969 0 0 0.298672 0 0.666641V17.3333C0 17.702 0.297969 17.9999 0.666641 17.9999H3.33328V16.6666H1.33328V1.33336H7.63594L13.3333 10.196V16.6667H9.99992V18H13.9999C14.3686 18 14.6666 17.702 14.6666 17.3334V10C14.6666 9.87266 14.63 9.74664 14.5606 9.63937Z" transform="translate(158.333 148.375)" fill="white"/>
<path d="M1.33328 6V1.33336H6.66664V0H0.666641C0.297969 0 0 0.298672 0 0.666641V6.66664C0 7.03531 0.297969 7.33328 0.666641 7.33328H10.6666V5.99992H1.33328V6Z" transform="translate(161 151.042)" fill="white"/>
<path d="M26 0H0.666641C0.298672 0 0 0.298672 0 0.666641V22C0 22.3687 0.298672 22.6666 0.666641 22.6666H6V21.3333H1.33336V1.33328H25.3334V21.3333H12.6666V22.6666H26C26.3687 22.6666 26.6666 22.3687 26.6666 22V0.666641C26.6666 0.298672 26.3687 0 26 0Z" transform="translate(133 143.708)" fill="white"/>
<path d="M0 0H4V1.33336H0V0Z" transform="translate(133.667 162.375)" fill="white"/>
<path d="M0 0H11.3334V1.33336H0V0Z" transform="translate(147 162.375)" fill="white"/>
<path d="M0 0H2.66664V1.33336H0V0Z" transform="translate(169.667 162.375)" fill="white"/>
<path d="M0 0H23.3334V1.33336H0V0Z" transform="translate(135.667 146.375)" fill="white"/>
<path d="M0 0H1.33336V1.33336H0V0Z" transform="translate(141.667 165.042)" fill="white"/>
<path d="M0 0H1.33336V1.33336H0V0Z" transform="translate(164.333 165.042)" fill="white"/>
<path d="M0 0H9.33336V1.33336H0V0Z" transform="translate(135.667 141.042)" fill="white"/>
<path d="M0 0H1.33336V1.33336H0V0Z" transform="translate(133 141.042)" fill="white"/>
</g>
<g opacity="0.7">
<path fill-rule="evenodd" clip-rule="evenodd" d="M1.75439 0C2.48877 0 3.15137 0.463989 3.40283 1.15466C3.73389 2.0636 3.26318 3.07239 2.35449 3.4032C2.16064 3.47351 1.95898 3.50928 1.75439 3.50928C1.02002 3.50928 0.357422 3.04529 0.105957 2.35474C-0.224609 1.44568 0.245605 0.437012 1.1543 0.106079C1.34766 0.0357666 1.5498 0 1.75439 0ZM1.75439 2.33972C1.82227 2.33972 1.88965 2.32776 1.9541 2.30408C2.25732 2.19385 2.41406 1.85754 2.30371 1.55469C2.21973 1.32422 1.99902 1.16956 1.75391 1.16956C1.68604 1.16956 1.61914 1.18152 1.5542 1.20508C1.25146 1.31531 1.09424 1.65161 1.20459 1.95471C1.28857 2.18494 1.50928 2.33972 1.75439 2.33972Z" transform="translate(932.235 166.274)" fill="white"/>
<path fill-rule="evenodd" clip-rule="evenodd" d="M39.8867 24.0072L39.0864 21.8091C39.0317 21.6587 38.9219 21.5447 38.7876 21.481L38.7842 21.4792L38.7573 21.4683L38.7324 21.4579L38.7261 21.4559C38.604 21.4143 38.4678 21.412 38.3374 21.4596L36.4248 22.155L32.3569 10.9778L30.7573 6.58179C30.6729 6.35181 30.4521 6.19739 30.2075 6.19739C30.1396 6.19739 30.0718 6.20898 30.0078 6.23242C29.7046 6.34241 29.5479 6.6792 29.6577 6.98169L31.0581 10.8282L23.5483 13.5615L18.9688 15.2281L15.9019 6.80273L19.9316 5.33618L20.7988 7.71692C20.8818 7.94702 21.1025 8.10217 21.3477 8.10217C21.416 8.10217 21.4834 8.09045 21.5479 8.06628L24.479 6.99963C24.6255 6.94653 24.7422 6.83899 24.8086 6.69788C24.8574 6.5929 24.8735 6.47852 24.8569 6.36499C24.855 6.34973 24.8516 6.33447 24.8481 6.31946L24.8457 6.30676C24.8408 6.28784 24.835 6.26904 24.8281 6.25037L23.9619 3.86951L27.9912 2.40308L28.8579 4.78357C28.9419 5.01367 29.1626 5.16882 29.4072 5.16882C29.4751 5.16882 29.543 5.1571 29.6079 5.13293C29.9102 5.02295 30.0669 4.68689 29.957 4.38367L28.8906 1.45264C28.8169 1.25146 28.6387 1.10803 28.4312 1.07532C28.4014 1.07068 28.3711 1.06824 28.3408 1.06824C28.2729 1.06824 28.2051 1.07996 28.1411 1.10327L23.0146 2.96924L23.0078 2.9718L20.0864 4.03528L20.0815 4.03662L20.0728 4.04016L14.9526 5.90405C14.8057 5.95703 14.689 6.06458 14.6226 6.20581C14.5562 6.34766 14.5493 6.50659 14.603 6.65332L18.0698 16.1781L21.4033 25.3376C20.9805 25.2086 20.5366 25.1361 20.0825 25.1272L11.6372 1.92395C11.0859 0.409058 9.40479 -0.374878 7.88916 0.176758L0.38623 2.88269L0.345215 2.89978L0.330566 2.90613L0.293945 2.92603L0.278809 2.9342L0.245605 2.95679L0.230957 2.9668L0.20166 2.99121L0.187012 3.00378L0.161621 3.02991L0.147461 3.04431L0.125 3.07227L0.111816 3.08826L0.0932617 3.1167L0.0810547 3.13513L0.0654297 3.16455L0.0551758 3.18481L0.0429688 3.21436L0.0336914 3.23682L0.0244141 3.26624L0.0170898 3.29065L0.0112305 3.32019L0.00634766 3.34595L0.00292969 3.3761L0.000488281 3.40234L0 3.43323V3.45972L0.00292969 3.49109L0.00585938 3.51721L0.0117188 3.54834L0.0170898 3.57483L0.0263672 3.60571L0.0341797 3.63147L0.834961 5.83105L0.850098 5.86511L0.856445 5.8783L0.862793 5.89209L0.873535 5.91504C0.879883 5.92676 0.887207 5.93762 0.89502 5.94849L0.903809 5.96155L0.911621 5.97388L0.92334 5.99084C0.935059 6.00586 0.948242 6.01929 0.961426 6.03284L0.964355 6.03577L0.983398 6.05676C0.999512 6.07166 1.0166 6.08459 1.03369 6.09753L1.05225 6.11218C1.0708 6.125 1.09082 6.13586 1.11084 6.14636L1.12793 6.15649C1.14844 6.1665 1.16992 6.17419 1.19141 6.18176L1.20996 6.18909C1.23193 6.19604 1.25439 6.20044 1.27734 6.20483L1.2959 6.20911C1.3252 6.21375 1.35449 6.21594 1.38477 6.21594L1.43457 6.21387L1.44482 6.21252L1.48438 6.2074L1.50244 6.20337L1.53418 6.19641L1.56738 6.18604L1.58301 6.18115L8.53955 3.672L16.7861 26.3287C15.3149 27.6155 14.7021 29.7227 15.4097 31.6666C16.1084 33.5851 17.9487 34.8743 19.9897 34.8743C20.5571 34.8743 21.1182 34.7749 21.6558 34.5792C22.8789 34.1339 23.8555 33.2393 24.4058 32.0594C24.6982 31.4324 24.8501 30.7648 24.8628 30.0931L39.5371 24.7568L39.5488 24.752L39.5923 24.7335L39.6099 24.724L39.644 24.7054L39.6621 24.693L39.6919 24.6726L39.7002 24.6653C39.7124 24.6558 39.7246 24.6461 39.7354 24.6357L39.7412 24.63L39.7749 24.595L39.7812 24.5874L39.8105 24.5509L39.813 24.5468L39.8413 24.5038L39.8457 24.4956L39.8672 24.4542L39.8745 24.4373L39.8887 24.4023L39.896 24.3774L39.9048 24.3486C39.9087 24.3342 39.9111 24.3195 39.9136 24.3048L39.916 24.2935C39.9297 24.2002 39.9214 24.1021 39.8867 24.0072ZM22.8628 4.26941L23.5293 6.10095L21.6973 6.7677L21.0308 4.93616L22.8628 4.26941ZM26.9966 15.6256L26.3296 13.7942L24.4976 14.4609L25.1641 16.2925L26.9966 15.6256ZM19.3691 16.3273L23.3989 14.8608L24.2656 17.2417C24.3486 17.4717 24.5693 17.6267 24.8149 17.6267C24.8828 17.6267 24.9502 17.6144 25.0146 17.5909L27.9458 16.5242C28.249 16.4143 28.4058 16.0782 28.2949 15.7749L27.4282 13.3943L31.4585 11.9275L35.3262 22.5542L23.6587 26.7972C23.4395 26.547 23.1968 26.3198 22.9331 26.1199L19.3691 16.3273ZM9.42773 2.69653L9.43896 2.72388L17.7847 25.6547C17.9575 25.5674 18.1357 25.4882 18.3218 25.4204C18.5068 25.3531 18.6943 25.2982 18.8838 25.2539L10.5381 2.32385C10.207 1.41479 9.19873 0.944458 8.2876 1.27588L1.33447 3.78381L1.73438 4.88293L8.69092 2.37378L8.7085 2.36853L8.74756 2.35669L8.78223 2.34973L8.80469 2.34521L8.85205 2.34058L8.8623 2.3396L8.91699 2.33972C9.0127 2.3446 9.10352 2.37195 9.18311 2.41833L9.18652 2.42004L9.22852 2.44739L9.2334 2.45093L9.26855 2.479L9.27783 2.48633L9.30713 2.51514L9.31836 2.52612L9.34326 2.55566L9.35547 2.56995L9.37549 2.59949L9.38818 2.6178L9.40381 2.64636L9.41602 2.66943L9.42773 2.69653ZM23.3457 31.5651C22.9272 32.4617 22.1851 33.1417 21.2559 33.48C20.8462 33.629 20.4199 33.7046 19.9893 33.7046C18.438 33.7046 17.0396 32.7247 16.5088 31.2665C15.8101 29.3475 16.8032 27.218 18.7222 26.5195C19.1313 26.3705 19.5576 26.2949 19.9888 26.2949C21.5396 26.2949 22.9385 27.2748 23.4692 28.7332C23.8076 29.6627 23.7637 30.6685 23.3457 31.5651ZM24.5684 28.3331C24.6357 28.5184 24.6904 28.7059 24.7349 28.895L38.5879 23.8574L38.188 22.7583L24.335 27.7958C24.4229 27.9688 24.501 28.1479 24.5684 28.3331Z" transform="translate(914 138.029)" fill="white"/>
</g>
<defs>
<linearGradient id="paint0_linear" x2="1" gradientUnits="userSpaceOnUse" gradientTransform="translate(542.524 392.318) scale(1085.05 392.318) rotate(-90)">
<stop/>
<stop offset="1" stop-color="white"/>
</linearGradient>
</defs>
</svg>
