<svg width="50" height="50" viewBox="0 0 50 50" fill="none" xmlns="http://www.w3.org/2000/svg">
<path fill-rule="evenodd" clip-rule="evenodd" d="M4 20.8018C6.20557 20.8018 8 19.0074 8 16.8018C8 16.0834 7.79443 15.4186 7.46143 14.8354L14.3896 8.77301C15.0625 9.28583 15.8911 9.60187 16.7998 9.60187C17.791 9.60187 18.687 9.22583 19.3872 8.62744L27.6289 15.0378C27.3633 15.5723 27.2002 16.1658 27.2002 16.8018C27.2002 19.0074 28.9946 20.8018 31.2002 20.8018C33.4058 20.8018 35.2002 19.0074 35.2002 16.8018C35.2002 16.0723 34.9897 15.397 34.6465 14.8074L43.2041 7.20184C43.6064 7.50342 44.0649 7.73145 44.5649 7.86505C44.9097 7.95782 45.2593 8.00342 45.6064 8.00342C46.2993 8.00342 46.9839 7.82104 47.6001 7.46582C48.5249 6.93146 49.1865 6.06903 49.4634 5.03705C49.7402 4.00507 49.5986 2.92664 49.064 2.00183C48.5298 1.07703 47.667 0.415466 46.6353 0.138611C45.603 -0.139771 44.5249 0.00506592 43.6001 0.537842C42.6753 1.07227 42.0137 1.93463 41.7368 2.96661C41.46 3.99866 41.6016 5.07703 42.1362 6.00183L42.1401 6.00745L33.5854 13.6107C32.9175 13.1099 32.0977 12.8018 31.2002 12.8018C30.209 12.8018 29.313 13.1779 28.6128 13.7762L20.3711 7.36584C20.6367 6.83142 20.7998 6.23785 20.7998 5.60187C20.7998 3.39624 19.0054 1.60181 16.7998 1.60181C14.5942 1.60181 12.7998 3.39624 12.7998 5.60187C12.7998 6.32025 13.0054 6.98505 13.3384 7.56824L6.41016 13.6306C5.73779 13.1179 4.90869 12.8018 4 12.8018C1.79443 12.8018 0 14.5963 0 16.8018C0 19.0074 1.79443 20.8018 4 20.8018ZM44.4004 1.92346C44.7778 1.70587 45.189 1.60266 45.5962 1.60266C46.4258 1.60266 47.2344 2.03308 47.6787 2.80188C48.3403 3.94824 47.9468 5.41864 46.8003 6.08026C45.6538 6.74347 44.1836 6.34827 43.522 5.20184C42.8604 4.05548 43.2539 2.58508 44.4004 1.92346ZM33.5996 16.8019C33.5996 15.4786 32.5229 14.4019 31.1997 14.4019C29.8765 14.4019 28.7998 15.4786 28.7998 16.8019C28.7998 18.1251 29.8765 19.2018 31.1997 19.2018C32.5229 19.2018 33.5996 18.1251 33.5996 16.8019ZM16.7998 3.20184C18.123 3.20184 19.1997 4.27863 19.1997 5.60187C19.1997 6.92505 18.123 8.00183 16.7998 8.00183C15.4766 8.00183 14.3999 6.92505 14.3999 5.60187C14.3999 4.27863 15.4766 3.20184 16.7998 3.20184ZM6.3999 16.8019C6.3999 15.4786 5.32324 14.4019 4 14.4019C2.67676 14.4019 1.6001 15.4786 1.6001 16.8019C1.6001 18.1251 2.67676 19.2018 4 19.2018C5.32324 19.2018 6.3999 18.1251 6.3999 16.8019Z" transform="translate(0.0649414 19.5294)" fill="#FF6600"/>
<path d="M46.4 0H44.8V19.2H43.2V0.8H41.6V19.2H40V3.2H38.4V19.2H36.8V9.6H35.2V19.2H33.6V12.8H32V19.2H30.4V12.8H28.8V19.2H27.2V9.6H25.6V19.2H24V4H22.4V19.2H20.8V1.6H19.2V19.2H17.6V1.6H16V19.2H14.4V1.6H12.8V19.2H11.2V4.8H9.6V19.2H8V12H6.4V19.2H4.8V12.8H3.2V19.2H0V20.8H49.6V19.2H46.4V0Z" transform="translate(0.0649414 29.1312)" fill="#FF6600"/>
<path d="M4.3312 21.9312H5.9312V9.1312H3.8624L10.7312 2.2624L17.6 9.1312H15.5312V11.5312H17.1312V10.7312H21.4624L10.7312 0L0 10.7312H4.3312V21.9312Z" transform="translate(2.13379 8.79999)" fill="#FF6600"/>
<path d="M4.3312 13.9312H5.9312V9.1312H3.8624L10.7312 2.2624L15.7656 7.2968L16.8968 6.1656L10.7312 0L0 10.7312H4.3312V13.9312Z" transform="translate(14.9336)" fill="#FF6600"/>
<path d="M4.3312 10.7312V27.5312H5.9312V9.1312H3.8624L10.7312 2.2624L17.6 9.1312H15.5312V15.5312H17.1312V10.7312H21.4624L10.7312 0L0 10.7312H4.3312Z" transform="translate(26.1338 3.20001)" fill="#FF6600"/>
<path d="M0 0H1.6V1.6H0V0Z" transform="translate(36.0649 24.3312)" fill="#FF6600"/>
<path d="M0 0H1.6V1.6H0V0Z" transform="translate(36.0649 21.1312)" fill="#FF6600"/>
<path d="M0 0H1.6V1.6H0V0Z" transform="translate(36.0649 17.9312)" fill="#FF6600"/>
<path d="M0 0H1.6V1.6H0V0Z" transform="translate(24.8647 25.9312)" fill="#FF6600"/>
<path d="M0 0H1.6V1.6H0V0Z" transform="translate(24.8647 22.7312)" fill="#FF6600"/>
<path d="M0 0H1.6V1.6H0V0Z" transform="translate(24.8647 19.5312)" fill="#FF6600"/>
<path d="M0 0H1.6V1.6H0V0Z" transform="translate(12.0649 21.1312)" fill="#FF6600"/>
<path d="M0 0H1.6V1.6H0V0Z" transform="translate(12.0649 17.9312)" fill="#FF6600"/>
</svg>
