<svg width="50" height="50" viewBox="0 0 50 50" fill="none" xmlns="http://www.w3.org/2000/svg">
<path d="M0 0H1.59681V1.59681H0V0Z" transform="translate(11.2305 45.204)" fill="#FF6600"/>
<path d="M0 0H1.59681V1.59681H0V0Z" transform="translate(14.4238 45.204)" fill="#FF6600"/>
<path fill-rule="evenodd" clip-rule="evenodd" d="M35.9282 20.7585C38.1294 20.7585 39.9199 22.5493 39.9199 24.7505V41.517H43.1138V45.509C43.1138 47.7102 41.3228 49.501 39.1216 49.501H10.3794C8.17822 49.501 6.38721 47.7102 6.38721 45.509V41.517H9.58105V26.5365C3.91211 24.796 0 19.5593 0 13.5729C0 6.08862 6.08838 0 13.5728 0C21.0571 0 27.1455 6.08862 27.1455 13.5729C27.1455 16.1174 26.4121 18.614 25.0737 20.7585H35.9282ZM19.0283 20.7585H23.1416C24.5518 18.887 25.3643 16.701 25.5151 14.3713H20.7305C20.6196 16.5685 20.0493 18.709 19.0283 20.7585ZM25.5083 12.7745H20.7202C20.6084 10.5797 20.0654 8.63232 19.3159 6.97009C20.6646 6.43195 21.6025 5.78363 22.1924 5.27985C24.0928 7.25348 25.3159 9.87305 25.5083 12.7745ZM18.5933 5.54492C19.7168 5.117 20.5024 4.60443 21.0044 4.19879C19.5259 3.02435 17.7686 2.19086 15.8452 1.81958C16.6934 2.71936 17.7046 3.97125 18.5933 5.54492ZM14.3711 2.60919C15.1338 3.38763 16.1133 4.54053 16.9946 6.02155C16.229 6.19562 15.3579 6.3194 14.3711 6.36407V2.60919ZM17.7739 7.47546C16.7998 7.73016 15.6655 7.90503 14.3711 7.95929V12.7745H19.1216C19.0059 10.7784 18.4839 8.99481 17.7739 7.47546ZM14.3711 14.3713H19.1338C19.0088 16.5733 18.3647 18.7162 17.2192 20.7585H14.3711V14.3713ZM38.3232 24.7505C38.3232 23.4299 37.249 22.3553 35.9282 22.3553H13.5728C12.2524 22.3553 11.1777 23.4299 11.1777 24.7505V41.517H12.7744V25.5489C12.7744 24.6683 13.4907 23.9521 14.3716 23.9521H35.1299C36.0103 23.9521 36.7266 24.6683 36.7266 25.5489V38.3234H35.1299V25.5489H14.3716V41.517H35.1299V39.9202H36.7266V41.517H38.3232V24.7505ZM28.7422 43.1138V43.9122C28.7422 44.3521 28.3848 44.7106 27.9438 44.7106H21.5566C21.1162 44.7106 20.7583 44.3521 20.7583 43.9122V43.1138H28.7422ZM8.02734 14.3713C8.2124 17.5529 9.44385 20.1605 10.6909 22.0032C11.2432 21.4236 11.9609 21.0052 12.7744 20.8391V14.3713H8.02734ZM11.3052 1.81879C10.459 2.71936 9.4458 3.96729 8.55566 5.54651C7.43066 5.1178 6.64307 4.60522 6.14111 4.19885C7.62061 3.02356 9.38037 2.18927 11.3052 1.81879ZM12.7744 6.36328V2.60437C12.0098 3.38361 11.0229 4.53809 10.1406 6.01837C10.9087 6.19397 11.7827 6.31854 12.7744 6.36328ZM4.95312 5.27905C5.54492 5.78442 6.48633 6.43433 7.83936 6.97327C7.50342 7.7182 7.20068 8.51178 6.96289 9.36688L8.50195 9.7948C8.73291 8.96448 9.03369 8.19403 9.37109 7.47467C10.3457 7.72937 11.481 7.90503 12.7754 7.9585V12.7745H8.0166C8.04492 12.2819 8.08838 11.7908 8.16846 11.307L6.5918 11.0491C6.49805 11.6176 6.44873 12.1956 6.41895 12.7745H1.63672C1.83008 9.87305 3.05322 7.25348 4.95312 5.27905ZM6.40869 14.3713H1.63037C1.82129 17.2487 3.0332 19.8851 4.94873 21.8771C5.53955 21.3708 6.48145 20.7218 7.84131 20.1788C7.09375 18.527 6.52197 16.5773 6.40869 14.3713ZM6.13574 22.9669C6.64111 22.5588 7.43701 22.0439 8.56836 21.6096C8.96826 22.3177 9.38867 22.954 9.79736 23.5106C9.66846 23.9026 9.58105 24.3146 9.58105 24.7505V24.8671C8.31396 24.4215 7.1543 23.774 6.13574 22.9669ZM41.5166 45.509V43.1138H30.3394V43.9122C30.3394 45.2327 29.2646 46.3074 27.9438 46.3074H21.5566C20.2363 46.3074 19.1616 45.2327 19.1616 43.9122V43.1138H7.98389V45.509C7.98389 46.8295 9.05859 47.9042 10.3789 47.9042H39.1216C40.4424 47.9042 41.5166 46.8295 41.5166 45.509Z" transform="translate(0.0527344 0.493408)" fill="#FF6600"/>
<path fill-rule="evenodd" clip-rule="evenodd" d="M3.19385 0V8.92932C4.12061 9.25989 4.79053 10.1381 4.79053 11.1777C4.79053 12.4982 3.71582 13.5729 2.39502 13.5729C1.07471 13.5729 0 12.4982 0 11.1777C0 10.1381 0.669922 9.25989 1.59668 8.92932V0H3.19385ZM1.59668 11.1777C1.59668 11.6176 1.95459 11.9761 2.39502 11.9761C2.83594 11.9761 3.19336 11.6176 3.19336 11.1777C3.19336 10.7377 2.83594 10.3793 2.39502 10.3793C1.95459 10.3793 1.59668 10.7377 1.59668 11.1777Z" transform="translate(42.3682 26.8407)" fill="#FF6600"/>
<path fill-rule="evenodd" clip-rule="evenodd" d="M2.39502 0C3.71582 0 4.79053 1.07465 4.79053 2.3952C4.79053 3.43475 4.12061 4.31299 3.19385 4.64349V13.5729H1.59668V4.64349C0.669922 4.31299 0 3.43475 0 2.3952C0 1.07465 1.07471 0 2.39502 0ZM1.59668 2.3952C1.59668 2.83514 1.95459 3.1936 2.39502 3.1936C2.83594 3.1936 3.19336 2.83514 3.19336 2.3952C3.19336 1.95526 2.83594 1.5968 2.39502 1.5968C1.95459 1.5968 1.59668 1.95526 1.59668 2.3952Z" transform="translate(2.44775 26.8407)" fill="#FF6600"/>
<path fill-rule="evenodd" clip-rule="evenodd" d="M0 6.38721C0 2.86548 2.86523 0 6.38721 0C9.90918 0 12.7744 2.86548 12.7744 6.38721C12.7744 9.909 9.90918 12.7745 6.38721 12.7745C2.86523 12.7745 0 9.909 0 6.38721ZM5.58887 1.66864C3.32666 2.05109 1.59668 4.01831 1.59668 6.38721C1.59668 7.42035 1.92871 8.37524 2.48682 9.15845L5.58887 6.05664V1.66864ZM6.3877 11.1776C5.35449 11.1776 4.39941 10.8455 3.61621 10.2874L6.71777 7.18561H11.106C10.7236 9.44751 8.75635 11.1776 6.3877 11.1776ZM7.18555 1.66864V5.58881H11.1055C10.7671 3.58722 9.18701 2.00714 7.18555 1.66864Z" transform="translate(18.416 27.6391)" fill="#FF6600"/>
<path d="M10.5677 7.67904H20.9469V6.08224H8.97086V7.98403L3.57046 5.28383L8.97086 2.58363V4.48543H20.9469V2.88862H10.5677V0L0 5.28383L10.5677 10.5677V7.67904Z" transform="translate(28.6069)" fill="#FF6600"/>
<path d="M20.9469 5.28383L10.3792 0V2.88862H0V4.48543H11.976V2.58363L17.3764 5.28383L11.976 7.98403V6.08224H0V7.67904H10.3792V10.5677L20.9469 5.28383Z" transform="translate(28.7954 11.1777)" fill="#FF6600"/>
</svg>
