<svg xmlns="http://www.w3.org/2000/svg" width="50" height="50" viewBox="0 0 50 50">
    <g fill="#012B48" fill-rule="nonzero">
        <path d="M46.958 20.968l-19.777-9.522a4.026 4.026 0 0 0 1.851-3.381V6.337a3.222 3.222 0 0 0 2.42-3.111A3.23 3.23 0 0 0 28.226 0 3.23 3.23 0 0 0 25 3.226a3.222 3.222 0 0 0 2.42 3.111v1.728A2.422 2.422 0 0 1 25 10.484a2.422 2.422 0 0 1-2.42-2.42V6.453h-1.612v1.613c0 1.418.74 2.662 1.85 3.381L3.043 20.968H0V50h50V20.968h-3.042zM26.613 3.226c0-.89.723-1.613 1.613-1.613s1.613.723 1.613 1.613-.724 1.613-1.613 1.613c-.89 0-1.613-.724-1.613-1.613zM4.839 48.387h-.807v-1.613H2.42v1.613h-.806V22.581h.806v1.613h1.613V22.58h.807v25.806zm1.613-24.193h1.613v19.354H6.452V24.194zm37.096 24.193H6.452v-3.226h37.096v3.226zm-33.87-4.839V24.194h1.612v19.354H9.677zm3.225 0V24.194h1.613v19.354h-1.613zm3.226 0V24.194h1.613v19.354h-1.613zm3.226 0V24.194h1.613v19.354h-1.613zm3.226 0V24.194h1.613v19.354H22.58zm3.225 0V24.194h1.613v19.354h-1.613zm3.226 0V24.194h1.613v19.354h-1.613zm3.226 0V24.194h1.613v19.354h-1.613zm3.226 0V24.194h1.613v19.354h-1.613zm3.226 0V24.194h1.613v19.354H38.71zm4.838 0h-1.613V24.194h1.613v19.354zm0-20.967H6.452v-1.465L25 12.186l18.548 8.93v1.465zm4.84 25.806h-.807v-1.613h-1.613v1.613h-.807V22.581h.807v1.613h1.613V22.58h.806v25.806z"/>
        <path d="M9.677 45.968h4.839v1.613H9.677zM35.484 45.968h4.839v1.613h-4.839z"/>
    </g>
</svg>
