<svg width="40" height="40" viewBox="0 0 40 40" fill="none" xmlns="http://www.w3.org/2000/svg">
<g id="fb">
<path id="Shape" fill-rule="evenodd" clip-rule="evenodd" d="M20 0C31.0454 0 40 8.95459 40 20C40 31.0454 31.0454 40 20 40C8.95451 40 0 31.0454 0 20C0 8.95459 8.95451 0 20 0ZM20 1.81836C9.95818 1.81836 1.81818 9.9585 1.81818 20C1.81818 30.042 9.95818 38.1821 20 38.1821C30.0418 38.1821 38.1818 30.042 38.1818 20C38.1818 9.9585 30.0418 1.81836 20 1.81836Z" fill="white"/>
<path id="Shape_2" d="M6.13817 23.0563V11.5127H9.94726L10.5491 7.68725H6.13817V5.76908C6.13817 4.77092 6.46543 3.81817 7.89817 3.81817H10.7618V0H6.69634C3.27817 0 2.34542 2.25085 2.34542 5.37091V7.68549H0V11.5127H2.34542V23.0563H6.13817Z" transform="translate(15 7.5)" fill="white"/>
</g>
</svg>
