<?xml version="1.0"?>
<!--Icons from directory ""-->
<svg xmlns="http://www.w3.org/2000/svg" width="100" height="484" viewBox="0 0 100 484"><svg width="50" height="50" fill="none" id="003-trolley" y="0"><g fill="#012B48"><path fill-rule="evenodd" clip-rule="evenodd" d="M3.226 43.548a3.23 3.23 0 0 1 3.226-3.225 3.23 3.23 0 0 1 3.225 3.225 3.229 3.229 0 0 1-3.225 3.226 3.229 3.229 0 0 1-3.226-3.226zm1.613 0c0 .89.723 1.613 1.612 1.613.89 0 1.613-.723 1.613-1.613s-.723-1.612-1.613-1.612c-.889 0-1.612.723-1.612 1.612z"/><path fill-rule="evenodd" clip-rule="evenodd" d="M44.355 23.387v13.765c3.177.4 5.645 3.112 5.645 6.396A6.46 6.46 0 0 1 43.548 50c-2.701 0-5.017-1.671-5.976-4.032H12.428C11.468 48.329 9.153 50 6.452 50A6.46 6.46 0 0 1 0 43.548c0-3.284 2.468-5.996 5.645-6.396V4.032a2.422 2.422 0 0 0-2.42-2.42H0V0h3.226a4.037 4.037 0 0 1 4.032 4.032v19.355h1.613V5.645h32.258v17.742h3.226zM27.419 7.258h-4.838v6.452h4.838V7.258zm-16.935 0h10.484v8.065h8.064V7.258h10.484v16.13H10.484V7.257zm16.935 27.42V25h-4.838v9.677h4.838zM6.451 48.387a4.844 4.844 0 0 1-4.838-4.84A4.844 4.844 0 0 1 6.45 38.71a4.844 4.844 0 0 1 4.84 4.838 4.844 4.844 0 0 1-4.84 4.84zm6.397-4.033h24.305a6.465 6.465 0 0 1-.056-.807c0-.273.022-.541.056-.806H12.848c.033.265.055.533.055.806 0 .274-.022.542-.055.807zm-.42-3.226a6.464 6.464 0 0 0-5.17-3.977V25h13.71v11.29h8.064V25h13.71v12.152a6.394 6.394 0 0 0-2.31.751h-.916v.617a6.476 6.476 0 0 0-1.944 2.609H12.428zm26.282 2.42a4.844 4.844 0 0 0 4.838 4.838 4.844 4.844 0 0 0 4.84-4.839 4.844 4.844 0 0 0-4.84-4.838 4.844 4.844 0 0 0-4.838 4.838z"/><path fill-rule="evenodd" clip-rule="evenodd" d="M40.322 43.548a3.23 3.23 0 0 1 3.226-3.225 3.23 3.23 0 0 1 3.226 3.225 3.229 3.229 0 0 1-3.226 3.226 3.229 3.229 0 0 1-3.226-3.226zm1.613 0c0 .89.724 1.613 1.613 1.613.89 0 1.613-.723 1.613-1.613s-.723-1.612-1.613-1.612-1.613.723-1.613 1.612z"/><path d="M36.29 20.161h1.613v1.613H36.29v-1.613zM33.065 20.161h1.612v1.613h-1.612v-1.613zM36.29 16.936h1.613v1.612H36.29v-1.612zM36.29 37.903h1.613v1.613H36.29v-1.613zM39.516 34.677h1.613v1.613h-1.613v-1.613z"/></g></svg><svg width="50" height="50" fill="none" id="analytics" y="50"><path fill-rule="evenodd" clip-rule="evenodd" d="M4.065 40.331c2.206 0 4-1.794 4-4 0-.718-.206-1.383-.539-1.966l6.929-6.063a3.96 3.96 0 0 0 2.41.83c.99 0 1.887-.377 2.587-.975l8.242 6.41a3.947 3.947 0 0 0-.429 1.764c0 2.206 1.795 4 4 4 2.206 0 4-1.794 4-4 0-.73-.21-1.405-.554-1.994l8.558-7.606a4.005 4.005 0 0 0 2.402.802c.693 0 1.378-.183 1.994-.538a3.977 3.977 0 0 0 1.863-2.429 3.97 3.97 0 0 0-.4-3.035 3.977 3.977 0 0 0-2.428-1.863 3.971 3.971 0 0 0-3.035.4 3.977 3.977 0 0 0-1.863 2.428 3.97 3.97 0 0 0 .4 3.035l.003.006-8.555 7.603a3.96 3.96 0 0 0-2.385-.809 3.97 3.97 0 0 0-2.587.975l-8.242-6.41a3.946 3.946 0 0 0 .429-1.765c0-2.205-1.795-4-4-4-2.206 0-4 1.795-4 4 0 .719.205 1.383.538 1.967L6.475 33.16a3.96 3.96 0 0 0-2.41-.829c-2.206 0-4 1.795-4 4 0 2.206 1.794 4 4 4zm40.4-18.878a2.403 2.403 0 0 1 3.278.878 2.4 2.4 0 1 1-3.278-.878zm-10.8 14.878c0-1.323-1.077-2.4-2.4-2.4a2.403 2.403 0 0 0-2.4 2.4c0 1.323 1.076 2.4 2.4 2.4 1.323 0 2.4-1.076 2.4-2.4zm-16.8-13.6c1.323 0 2.4 1.077 2.4 2.4s-1.077 2.4-2.4 2.4a2.403 2.403 0 0 1-2.4-2.4c0-1.323 1.077-2.4 2.4-2.4zm-10.4 13.6c0-1.323-1.077-2.4-2.4-2.4a2.403 2.403 0 0 0-2.4 2.4c0 1.323 1.077 2.4 2.4 2.4s2.4-1.076 2.4-2.4z" fill="#F60"/><path d="M46.465 29.131h-1.6v19.2h-1.6v-18.4h-1.6v18.4h-1.6v-16h-1.6v16h-1.6v-9.6h-1.6v9.6h-1.6v-6.4h-1.6v6.4h-1.6v-6.4h-1.6v6.4h-1.6v-9.6h-1.6v9.6h-1.6v-15.2h-1.6v15.2h-1.6v-17.6h-1.6v17.6h-1.6v-17.6h-1.6v17.6h-1.6v-17.6h-1.6v17.6h-1.6v-14.4h-1.6v14.4h-1.6v-7.2h-1.6v7.2h-1.6v-6.4h-1.6v6.4h-3.2v1.6h49.6v-1.6h-3.2v-19.2zM6.465 30.731h1.6v-12.8H5.996l6.869-6.869 6.869 6.87h-2.069v2.4h1.6v-.8h4.331L12.865 8.8 2.134 19.531h4.331v11.2zM19.265 13.931h1.6v-4.8h-2.069l6.869-6.869 5.034 5.035 1.131-1.131L25.665 0 14.934 10.731h4.33v3.2z" fill="#F60"/><path d="M30.465 13.931v16.8h1.6v-18.4h-2.069l6.869-6.869 6.869 6.87h-2.069v6.4h1.6v-4.8h4.331L36.865 3.2 26.134 13.931h4.331z" fill="#F60"/><path d="M36.065 24.331h1.6v1.6h-1.6v-1.6zM36.065 21.131h1.6v1.6h-1.6v-1.6zM36.065 17.931h1.6v1.6h-1.6v-1.6zM24.865 25.931h1.6v1.6h-1.6v-1.6zM24.865 22.731h1.6v1.6h-1.6v-1.6zM24.865 19.531h1.6v1.6h-1.6v-1.6zM12.065 21.131h1.6v1.6h-1.6v-1.6zM12.065 17.931h1.6v1.6h-1.6v-1.6z" fill="#F60"/></svg><svg xmlns:xlink="http://www.w3.org/1999/xlink" width="50" height="50" id="box" y="100"><defs><rect id="box-b" width="359" height="892" rx="6"/><filter id="box-a" width="113.4%" height="105.4%" x="-6.7%" y="-2.7%" filterUnits="objectBoundingBox"><feOffset in="SourceAlpha" result="shadowOffsetOuter1"/><feGaussianBlur in="shadowOffsetOuter1" result="shadowBlurOuter1" stdDeviation="8"/><feComposite in="shadowBlurOuter1" in2="SourceAlpha" operator="out" result="shadowBlurOuter1"/><feColorMatrix in="shadowBlurOuter1" values="0 0 0 0 0 0 0 0 0 0 0 0 0 0 0 0 0 0 0.2 0"/></filter></defs><g fill="none" fill-rule="evenodd"><g transform="translate(-153 -30)"><use fill="#000" filter="url(#box-a)" xlink:href="#box-b"/><rect width="358" height="891" x=".5" y=".5" fill="#FFF" stroke="#EAEAEA" stroke-linejoin="square" rx="6"/></g><path fill="#F60" fill-rule="nonzero" d="M50 46.774v-1.613h-1.613V24.194h-1.613V0H19.355v9.677H3.225v14.517H1.614V45.16H0v1.613h1.613v1.613H0V50h50v-1.613h-1.613v-1.613H50zM31.452 1.613h3.225v9.677h-3.225V1.613zm-10.484 0h8.87v11.29h6.452V1.613h8.871v22.58H22.58V9.678h-1.612V1.613zm16.935 24.193v6.452h-3.226v-6.452h3.226zM12.097 11.29h1.613v6.452h-1.613V11.29zm-7.258 0h5.645v8.065h4.839V11.29h5.645v12.904H4.838V11.29zm10.484 14.516v6.452h-3.226v-6.452h3.226zm-12.097 0h7.258v8.065h6.451v-8.065h7.259v19.355H3.226V25.806zm1.613 22.581H3.226v-1.613h1.613v1.613zm17.742 0H6.45v-1.613h16.13v1.613zm3.225 0h-1.612v-1.613h1.612v1.613zm17.742 0H27.42v-1.613h16.13v1.613zm3.226 0h-1.613v-1.613h1.613v1.613zm0-3.226H25.806V25.806h7.259v8.065h6.451v-8.065h7.258v19.355zm-3.226-3.226h1.613v1.613h-1.613v-1.613zm-3.225 0h1.612v1.613h-1.612v-1.613zm-3.226 0h1.613v1.613h-1.613v-1.613zm6.451-3.225h1.613v1.613h-1.613V38.71zm-3.225 0h1.612v1.613h-1.612V38.71zm3.225-3.226h1.613v1.613h-1.613v-1.613zm-22.58 6.451h1.613v1.613h-1.613v-1.613zm-3.226 0h1.613v1.613h-1.613v-1.613zm-3.226 0h1.613v1.613h-1.613v-1.613zm6.452-3.225h1.613v1.613h-1.613V38.71zm-3.226 0h1.613v1.613h-1.613V38.71zm3.226-3.226h1.613v1.613h-1.613v-1.613zm20.967-14.516h1.613v1.613h-1.613v-1.613zm-3.225 0h1.613v1.613H38.71v-1.613zm-3.226 0h1.613v1.613h-1.613v-1.613zm6.451-3.226h1.613v1.613h-1.613v-1.613zm-3.225 0h1.613v1.613H38.71v-1.613zm3.225-3.226h1.613v1.613h-1.613v-1.613z"/></g></svg><svg width="50" height="50" fill="none" id="computer" y="150"><path d="M11.23 45.204h1.597v1.597H11.23v-1.597zM14.424 45.204h1.597v1.597h-1.597v-1.597z" fill="#F60"/><path fill-rule="evenodd" clip-rule="evenodd" d="M35.98 21.252a3.996 3.996 0 0 1 3.993 3.992V42.01h3.194v3.992a3.997 3.997 0 0 1-3.993 3.992H10.432a3.997 3.997 0 0 1-3.992-3.992V42.01h3.194V27.03A13.558 13.558 0 0 1 .053 14.066C.053 6.582 6.14.493 13.626.493c7.484 0 13.572 6.089 13.572 13.573 0 2.545-.733 5.041-2.072 7.186h10.855zm-16.899 0h4.113a11.8 11.8 0 0 0 2.374-6.387h-4.785c-.11 2.197-.681 4.337-1.702 6.387zm6.48-7.984h-4.788a16.062 16.062 0 0 0-1.404-5.805c1.348-.538 2.286-1.186 2.876-1.69a11.917 11.917 0 0 1 3.316 7.495zm-6.915-7.23c1.124-.428 1.91-.94 2.411-1.346a11.921 11.921 0 0 0-5.16-2.379c.85.9 1.86 2.152 2.749 3.725zm-4.222-2.935a18.32 18.32 0 0 1 2.623 3.412c-.765.174-1.636.298-2.623.342V3.103zm3.403 4.866c-.974.255-2.109.43-3.403.484v4.815h4.75a14.474 14.474 0 0 0-1.347-5.3zm-3.403 6.896h4.763c-.125 2.202-.77 4.345-1.915 6.387h-2.848v-6.387zm23.952 10.379a2.398 2.398 0 0 0-2.395-2.395H13.626a2.398 2.398 0 0 0-2.396 2.395V42.01h1.597V26.042c0-.88.716-1.596 1.597-1.596h20.759c.88 0 1.596.716 1.596 1.596v12.775h-1.596V26.042H14.424V42.01h20.759v-1.596h1.596v1.596h1.597V25.244zm-9.581 18.363v.799c0 .44-.357.798-.798.798h-6.388a.8.8 0 0 1-.798-.798v-.799h7.984zM8.08 14.865c.185 3.181 1.417 5.789 2.664 7.632a3.98 3.98 0 0 1 2.083-1.164v-6.468H8.08zm3.278-12.553c-.846.9-1.86 2.149-2.75 3.728-1.125-.429-1.912-.941-2.414-1.348a11.92 11.92 0 0 1 5.164-2.38zm1.47 4.545v-3.76a18.343 18.343 0 0 0-2.635 3.415c.768.175 1.642.3 2.634.345zM5.005 5.772c.592.506 1.533 1.156 2.886 1.695a16.672 16.672 0 0 0-.876 2.393l1.539.428c.23-.83.531-1.6.869-2.32.974.255 2.11.43 3.404.484v4.816H8.07c.029-.493.072-.984.152-1.468l-1.576-.257a15.506 15.506 0 0 0-.173 1.725H1.689a11.93 11.93 0 0 1 3.317-7.496zm1.455 9.093H1.683a11.961 11.961 0 0 0 3.318 7.506c.591-.507 1.533-1.156 2.893-1.699a16.036 16.036 0 0 1-1.433-5.807zm-.273 8.595c.506-.408 1.302-.923 2.433-1.357.4.708.82 1.344 1.23 1.901a3.95 3.95 0 0 0-.217 1.24v.117a11.901 11.901 0 0 1-3.446-1.9zM41.57 46.002v-2.395H30.392v.799a2.398 2.398 0 0 1-2.395 2.395h-6.388a2.398 2.398 0 0 1-2.395-2.395v-.799H8.037v2.395a2.398 2.398 0 0 0 2.395 2.396h28.742a2.398 2.398 0 0 0 2.395-2.396z" fill="#F60"/><path fill-rule="evenodd" clip-rule="evenodd" d="M45.562 26.84v8.93a2.392 2.392 0 0 1 1.597 2.248 2.398 2.398 0 0 1-2.396 2.396 2.398 2.398 0 0 1-2.395-2.396c0-1.04.67-1.917 1.597-2.248v-8.93h1.597zm-1.597 11.178a.8.8 0 0 0 1.597 0 .799.799 0 0 0-1.597 0zM4.843 26.84a2.398 2.398 0 0 1 2.395 2.396c0 1.04-.67 1.918-1.596 2.248v8.93H4.044v-8.93a2.392 2.392 0 0 1-1.596-2.248 2.398 2.398 0 0 1 2.395-2.395zm-.799 2.396a.8.8 0 0 0 1.597 0 .799.799 0 0 0-1.597 0zM18.416 34.026a6.395 6.395 0 0 1 6.387-6.387 6.395 6.395 0 0 1 6.387 6.387 6.395 6.395 0 0 1-6.387 6.388 6.395 6.395 0 0 1-6.387-6.388zm5.589-4.718a4.795 4.795 0 0 0-3.992 4.718c0 1.033.332 1.988.89 2.772l3.102-3.102v-4.388zm.799 9.509a4.76 4.76 0 0 1-2.772-.89l3.102-3.102h4.388a4.795 4.795 0 0 1-4.718 3.992zm.798-9.51v3.92h3.92a4.797 4.797 0 0 0-3.92-3.92z" fill="#F60"/><path d="M39.175 7.679h10.379V6.082H37.578v1.902l-5.4-2.7 5.4-2.7v1.901h11.976V2.89h-10.38V0L28.608 5.284l10.568 5.284V7.679zM49.742 16.462l-10.567-5.284v2.888h-10.38v1.597h11.976v-1.902l5.4 2.7-5.4 2.7V17.26H28.795v1.597h10.38v2.888l10.567-5.283z" fill="#F60"/></svg><svg width="50" height="50" id="enterprise" y="200"><g fill="#012B48"><path d="M46.958 20.968l-19.777-9.522a4.026 4.026 0 0 0 1.851-3.381V6.337a3.222 3.222 0 0 0 2.42-3.111A3.23 3.23 0 0 0 28.226 0 3.23 3.23 0 0 0 25 3.226a3.222 3.222 0 0 0 2.42 3.111v1.728A2.422 2.422 0 0 1 25 10.484a2.422 2.422 0 0 1-2.42-2.42V6.453h-1.612v1.613c0 1.418.74 2.662 1.85 3.381L3.043 20.968H0V50h50V20.968h-3.042zM26.613 3.226a1.614 1.614 0 0 1 3.226 0c0 .89-.724 1.613-1.613 1.613-.89 0-1.613-.724-1.613-1.613zM4.839 48.387h-.807v-1.613H2.42v1.613h-.806V22.581h.806v1.613h1.613V22.58h.807v25.806zm1.613-24.193h1.613v19.354H6.452V24.194zm37.096 24.193H6.452v-3.226h37.096v3.226zm-33.87-4.839V24.194h1.612v19.354H9.677zm3.225 0V24.194h1.613v19.354h-1.613zm3.226 0V24.194h1.613v19.354h-1.613zm3.226 0V24.194h1.613v19.354h-1.613zm3.226 0V24.194h1.613v19.354H22.58zm3.225 0V24.194h1.613v19.354h-1.613zm3.226 0V24.194h1.613v19.354h-1.613zm3.226 0V24.194h1.613v19.354h-1.613zm3.226 0V24.194h1.613v19.354h-1.613zm3.226 0V24.194h1.613v19.354H38.71zm4.838 0h-1.613V24.194h1.613v19.354zm0-20.967H6.452v-1.465L25 12.186l18.548 8.93v1.465zm4.84 25.806h-.807v-1.613h-1.613v1.613h-.807V22.581h.807v1.613h1.613V22.58h.806v25.806z"/><path d="M9.677 45.968h4.839v1.613H9.677zm25.807 0h4.839v1.613h-4.839z"/></g></svg><svg width="50" height="50" fill="none" id="package" y="250"><path fill-rule="evenodd" clip-rule="evenodd" d="M50 1.613V0H6.452v8.871H0v24.194h6.452v8.87h3.267c.408 4.515 4.21 8.065 8.83 8.065 4.619 0 8.42-3.55 8.83-8.065h4.92C32.708 46.45 36.51 50 41.13 50 46.02 50 50 46.02 50 41.129s-3.98-8.87-8.871-8.87c-4.62 0-8.421 3.549-8.83 8.064h-1.654V25.806h1.613v-1.613h-1.613V12.098H50v-1.613H30.645V1.613H50zm-40.323 8.87v8.065H6.452v-8.064h3.225zm-8.064 0v20.969h12.903V10.484H11.29v9.677H4.838v-9.677H1.613zm16.935 37.904c-3.729 0-6.808-2.828-7.21-6.452h3.26a4.039 4.039 0 0 0 3.95 3.226 4.039 4.039 0 0 0 3.951-3.226h3.26c-.403 3.624-3.482 6.452-7.21 6.452zm2.27-6.452h-4.54a2.415 2.415 0 0 0 2.27 1.613c1.05 0 1.936-.676 2.27-1.613zm8.214-1.612H8.064v-7.258h20.968v7.258zM16.13 31.452h12.903V10.484H16.13v20.968zM29.032 8.87H8.064V1.613h20.968V8.87zm19.355 32.258c0-4.002-3.256-7.258-7.258-7.258-4.002 0-7.258 3.256-7.258 7.258 0 4.003 3.256 7.258 7.258 7.258 4.002 0 7.258-3.255 7.258-7.258z" fill="#F60"/><path fill-rule="evenodd" clip-rule="evenodd" d="M45.161 41.13a4.037 4.037 0 0 1-4.032 4.031 4.037 4.037 0 0 1-4.032-4.032 4.037 4.037 0 0 1 4.032-4.032 4.037 4.037 0 0 1 4.032 4.032zm-1.613 0a2.422 2.422 0 0 0-2.42-2.42 2.422 2.422 0 0 0-2.419 2.42 2.422 2.422 0 0 0 2.42 2.418 2.422 2.422 0 0 0 2.42-2.419z" fill="#F60"/><path d="M33.871 24.194h16.13v1.612H33.87v-1.613zM17.742 28.226h1.613v1.613h-1.613v-1.613zM20.968 28.226h1.613v1.613h-1.613v-1.613zM24.193 28.226h1.613v1.613h-1.613v-1.613zM20.968 25h1.613v1.613h-1.613V25zM17.742 25h1.613v1.613h-1.613V25zM17.742 21.774h1.613v1.613h-1.613v-1.613z" fill="#F60"/></svg><svg width="100" height="100" fill="none" id="steering-wheel" y="300"><path opacity=".4" fill-rule="evenodd" clip-rule="evenodd" d="M85.356 14.645C75.912 5.2 63.356 0 50 0 36.645 0 24.088 5.2 14.645 14.645 5.2 24.087 0 36.645 0 50c0 13.355 5.2 25.912 14.645 35.356C24.089 94.799 36.645 100 50 100c13.356 0 25.912-5.2 35.356-14.645C94.799 75.912 100 63.355 100 50c0-13.356-5.2-25.912-14.644-35.355zM50 95.651C24.827 95.652 4.348 75.172 4.348 50 4.348 24.827 24.828 4.348 50 4.348c25.173 0 45.652 20.48 45.652 45.652 0 25.173-20.48 45.652-45.652 45.652zM17.807 56.12H29.84c7.568 0 13.724 6.015 13.724 13.408v13.47c0 .665-.315 1.292-.852 1.7a2.236 2.236 0 0 1-1.898.383c-13.191-3.317-23.495-13.383-26.892-26.27l-.001-.004a35.825 35.825 0 0 1-1.041-5.977c-.104-1.184.793-2.226 2.005-2.327 1.213-.099 2.278.776 2.382 1.96.107 1.226.29 2.45.54 3.657zM39.16 80.097c-9.41-3.24-16.822-10.482-20.14-19.675h10.82c5.139 0 9.32 4.085 9.32 9.106v10.57zm44.777-23.661a2.201 2.201 0 0 1 2.131 2.749 37.385 37.385 0 0 1-26.884 26.884 2.209 2.209 0 0 1-1.897-.392 2.2 2.2 0 0 1-.852-1.74V70.156c0-7.565 6.154-13.72 13.718-13.72h13.784zm-23.1 24.534V70.155c0-5.138 4.179-9.318 9.316-9.318H80.97A32.985 32.985 0 0 1 60.837 80.97zM41.583 50.495c0-4.913 3.998-8.91 8.911-8.91 4.913 0 8.91 3.997 8.91 8.91 0 4.914-3.997 8.911-8.91 8.911s-8.91-3.998-8.91-8.91zm8.911 4.455a4.46 4.46 0 0 1-4.455-4.455 4.46 4.46 0 0 1 4.455-4.455 4.46 4.46 0 0 1 4.456 4.455 4.46 4.46 0 0 1-4.456 4.455zm-37.587-9.31c.135-1.299 1.119-2.22 2.198-2.057 1.08.162 1.845 1.346 1.71 2.644l-.02.199c-.119 1.203-.969 2.089-1.953 2.089-.077 0-.155-.005-.234-.017-1.08-.154-1.852-1.331-1.724-2.63l.023-.229zm72.54-6.555l-.007-.016c-2.302-7.433-6.98-14.104-13.174-18.787-6.413-4.848-14.044-7.41-22.069-7.41-8.024 0-15.655 2.562-22.068 7.41-6.198 4.685-10.879 11.363-13.18 18.801a2.223 2.223 0 0 0 .42 2.085c.485.576 1.228.86 1.966.75 8.19-1.206 20.538-2.644 32.862-2.644 11.65 0 23.32 1.285 31.479 2.444a33.466 33.466 0 0 1 1.107 8.557c0 1.215.973 2.2 2.172 2.2 1.2 0 2.173-.985 2.173-2.2 0-3.816-.566-7.58-1.682-11.19zm-65.121-2.03c8.127-1.089 18.995-2.181 29.871-2.181 10.877 0 21.744 1.092 29.872 2.18-5.133-11.965-16.734-19.782-29.872-19.782-13.137 0-24.739 7.817-29.872 19.783z" fill="#fff"/></svg><svg width="100" height="84" fill="none" id="users" y="400"><path fill-rule="evenodd" clip-rule="evenodd" d="M52.92 50.964a11.479 11.479 0 0 0-8.929-4.837 2.034 2.034 0 0 0-.228-.013c-4.519 0-8.253-3.415-8.762-7.799 1.3-.947 2.501-2.15 3.565-3.59 2.152-2.913 3.548-6.552 4.066-10.488a2.07 2.07 0 0 0 .388-.602 17.68 17.68 0 0 0 1.373-6.883C44.393 7.53 37.42.026 28.849.026c-2.217 0-4.367.504-6.4 1.497-.76.064-1.505.201-2.22.408-7.165 2.07-11.215 10.734-9.027 19.313.22.863.5 1.712.832 2.522.091.222.218.416.368.586.825 6.06 3.693 11.1 7.615 13.952-.505 4.39-4.241 7.81-8.763 7.81-.07 0-.139.004-.207.01C4.92 46.342 0 51.392 0 57.572v12.332c0 1.15.933 2.083 2.083 2.083H38.89a2.083 2.083 0 0 0 0-4.166H4.166V57.57c0-4.02 3.27-7.29 7.291-7.29.07 0 .138-.004.207-.01 1.5-.048 2.937-.35 4.269-.866l9.862 14.235a2.084 2.084 0 0 0 3.425 0l9.863-14.235a12.91 12.91 0 0 0 4.269.865c.068.007.137.01.206.01a7.308 7.308 0 0 1 5.96 3.09 2.08 2.08 0 0 0 2.903.498 2.083 2.083 0 0 0 .499-2.903zM21.385 5.933a7.412 7.412 0 0 1 1.718-.278c.306-.014.604-.095.875-.237 1.549-.814 3.187-1.226 4.87-1.226 6.147 0 11.167 5.409 11.368 12.141a7.436 7.436 0 0 0-4.499-1.51H24.823a2.493 2.493 0 0 1-2.314-1.563 2.437 2.437 0 0 0-2.419-1.525 2.446 2.446 0 0 0-2.214 1.828 14.32 14.32 0 0 1-2.873 5.558c-1.08-6.04 1.64-11.818 6.382-13.188zm-.565 11.72a18.608 18.608 0 0 1-4.32 5.922c.45 3.568 1.758 6.818 3.735 9.231 2.037 2.489 4.62 3.86 7.272 3.86 2.867 0 5.604-1.569 7.708-4.417 2.23-3.02 3.463-7.062 3.477-11.39a3.31 3.31 0 0 0-2.975-1.87H24.823a6.608 6.608 0 0 1-3.982-1.32l-.021-.016zm6.687 41.142L19.535 47.29a13.006 13.006 0 0 0 4.357-7.013 12.07 12.07 0 0 0 3.615.556c1.237 0 2.449-.188 3.617-.55a13.009 13.009 0 0 0 4.356 7.007l-7.973 11.506zm61.24-1.1c.07 0 .138.004.206.011C95.081 57.923 100 62.973 100 69.152v12.332c0 1.15-.933 2.083-2.084 2.083H47.068a2.083 2.083 0 0 1-2.084-2.083V69.152c0-6.18 4.92-11.23 11.047-11.446a2.13 2.13 0 0 1 .206-.01c4.522 0 8.258-3.42 8.763-7.809a15.803 15.803 0 0 1-2.474-2.23c-1.803-2-3.222-4.535-4.151-7.357-.238.335-.453.677-.62.95a2.085 2.085 0 0 1-3.672-.22 25.144 25.144 0 0 1-2.028-7.049 24.43 24.43 0 0 1-.235-2.754c-.186-5.811 1.507-11.35 4.767-15.596 3.354-4.37 7.957-6.864 12.962-7.024a15.608 15.608 0 0 1 7.004 1.405c.092-.006.664-.026.894-.016 4.334.041 8.426 2.045 11.525 5.647 3.028 3.517 4.783 8.203 4.942 13.195.163 5.09-1.348 9.947-4.254 13.68a2.084 2.084 0 0 1-3.636-.67c-1.386 3.387-3.49 6.173-6.04 8.03.5 4.393 4.238 7.818 8.763 7.818zm7.087 21.707H49.15v-10.25c0-4.02 3.27-7.29 7.291-7.29.07 0 .139-.004.206-.01a12.99 12.99 0 0 0 2.105-.237c1.81 5.94 7.346 10.178 13.74 10.178 6.393 0 11.93-4.237 13.74-10.178.683.135 1.386.214 2.103.236.069.007.137.01.207.01 4.02 0 7.29 3.271 7.29 7.292v10.249zm-23.35-26.988c-1.225 0-2.434-.194-3.606-.56a13.03 13.03 0 0 1-6.214 8.3c1.203 4.347 5.2 7.472 9.829 7.472 4.628 0 8.626-3.125 9.829-7.472a13.033 13.033 0 0 1-6.215-8.3c-1.163.366-2.377.56-3.624.56zm-15.821-16.55a21.978 21.978 0 0 1-.482-2.466 20.388 20.388 0 0 1-.196-2.304c-.155-4.851 1.232-9.442 3.907-12.926 2.58-3.36 6.056-5.277 9.79-5.397h.015c.248-.01 2.866-.12 5.536 1.226.307.155.66.226 1.004.217l.37-.017.041-.002.729-.033c3.129.02 6.125 1.512 8.438 4.199 2.408 2.798 3.806 6.567 3.935 10.611a18.135 18.135 0 0 1-.892 6.297 19.881 19.881 0 0 0-.658-1.55c-2.011-4.279-5.397-7.594-9.533-9.333a2.083 2.083 0 0 0-2.761 1.197c-.278.75-.614 1.48-1 2.17-1.09 1.95-3.29 3.11-5.734 3.025a16.45 16.45 0 0 0-6.337 1.022c-1.652.624-4.429 2.188-6.172 4.064zm7.635-.163c-.88.332-1.72.768-2.51 1.297 1.428 6.588 5.79 11.25 10.695 11.25 2.653 0 5.236-1.37 7.273-3.859 2.156-2.634 3.52-6.261 3.84-10.214.004-.063.013-.125.024-.187-1.221-2.002-2.845-3.652-4.745-4.823-.107.21-.218.417-.332.62-1.856 3.32-5.493 5.294-9.516 5.156-.275-.01-.554-.01-.829 0-1.349.042-2.661.298-3.9.76z" fill="#fff" opacity=".402"/></svg></svg>
