<svg width="40" height="40" viewBox="0 0 40 40" fill="none" xmlns="http://www.w3.org/2000/svg">
<g id="linkedin">
<path id="Shape" fill-rule="evenodd" clip-rule="evenodd" d="M20 0C31.0454 0 40 8.95459 40 20C40 31.0454 31.0454 40 20 40C8.95451 40 0 31.0454 0 20C0 8.95459 8.95451 0 20 0ZM20 1.81836C9.95817 1.81836 1.81817 9.9585 1.81817 20C1.81817 30.042 9.95817 38.1821 20 38.1821C30.0418 38.1821 38.1818 30.042 38.1818 20C38.1818 9.9585 30.0418 1.81836 20 1.81836Z" fill="white"/>
<g id="linkedin-logo">
<path id="LinkedIn" fill-rule="evenodd" clip-rule="evenodd" d="M2.42645 0C0.959503 0 0 0.962402 0 2.22754C0 3.46533 0.931747 4.45654 2.36954 4.45654H2.39819C3.89355 4.45654 4.82352 3.46533 4.82352 2.22754C4.79535 0.962402 3.89355 0 2.42645 0ZM20 11.7168V19.1113H15.7134V12.2124C15.7134 10.479 15.0933 9.29639 13.5417 9.29639C12.3572 9.29639 11.6524 10.0933 11.3423 10.8647C11.2292 11.1401 11.2001 11.5239 11.2001 11.9097V19.1113H6.91198C6.91198 19.1113 6.96973 7.42676 6.91198 6.21582H11.1996V8.04395L11.186 8.06396L11.1715 8.08545H11.1996V8.04395C11.7693 7.1665 12.7867 5.91309 15.0638 5.91309C17.885 5.91309 20 7.75635 20 11.7168ZM4.54114 19.1113H0.254677V6.21631H4.54114V19.1113Z" transform="translate(11 8.55811)" fill="white"/>
</g>
</g>
</svg>
