<svg width="50" height="50" viewBox="0 0 50 50" fill="none" xmlns="http://www.w3.org/2000/svg">
<path fill-rule="evenodd" clip-rule="evenodd" d="M50 1.61292V0H30.645H29.8389H6.45166V8.87097H4.83887H0V33.0645H6.45166V41.9355H9.71875C10.1274 46.45 13.9292 50 18.5483 50C23.168 50 26.9692 46.45 27.3784 41.9355H29.8389H30.645H32.2993C32.708 46.45 36.5098 50 41.1289 50C46.02 50 50 46.0201 50 41.129C50 36.2379 46.02 32.2581 41.1289 32.2581C36.5098 32.2581 32.708 35.808 32.2993 40.3226H30.645V25.8065H32.2583V24.1935H30.645V12.0968H50V10.4839H30.645V1.61292H50ZM9.67725 10.4839V18.5484H6.45166V10.4839H9.67725ZM1.61279 10.4839V31.4516H14.5161V10.4839H11.29V20.1613H4.83838V10.4839H1.61279ZM18.5483 48.3871C14.8193 48.3871 11.7402 45.5589 11.3379 41.9355H14.5977C14.9727 43.7734 16.6006 45.1613 18.5483 45.1613C20.4961 45.1613 22.124 43.7734 22.499 41.9355H25.7588C25.3564 45.5589 22.2773 48.3871 18.5483 48.3871ZM20.8184 41.9355H16.2773C16.6113 42.8718 17.4976 43.5484 18.5474 43.5484C19.5977 43.5484 20.4844 42.8718 20.8184 41.9355ZM29.0322 40.3226H8.06445V33.0645H29.0322V40.3226ZM16.1289 31.4516H29.0322V10.4839H16.1289V31.4516ZM29.0322 8.87097H11.29H8.06445V1.61292H29.0322V8.87097ZM48.3872 41.129C48.3872 37.1266 45.1309 33.871 41.1294 33.871C37.1274 33.871 33.8711 37.1266 33.8711 41.129C33.8711 45.1315 37.1274 48.3871 41.1294 48.3871C45.1309 48.3871 48.3872 45.1315 48.3872 41.129Z" fill="#FF6600"/>
<path fill-rule="evenodd" clip-rule="evenodd" d="M8.06445 4.03229C8.06445 6.25562 6.25586 8.06451 4.03223 8.06451C1.80908 8.06451 0 6.25562 0 4.03229C0 1.8089 1.80908 0 4.03223 0C6.25586 0 8.06445 1.8089 8.06445 4.03229ZM6.45166 4.03229C6.45166 2.69843 5.36621 1.61292 4.03223 1.61292C2.69824 1.61292 1.61279 2.69843 1.61279 4.03229C1.61279 5.36615 2.69824 6.4516 4.03223 6.4516C5.36621 6.4516 6.45166 5.36615 6.45166 4.03229Z" transform="translate(37.0967 37.0968)" fill="#FF6600"/>
<path d="M0 0H16.129V1.6129H0V0Z" transform="translate(33.8711 24.1935)" fill="#FF6600"/>
<path d="M0 0H1.6129V1.6129H0V0Z" transform="translate(17.7417 28.2258)" fill="#FF6600"/>
<path d="M0 0H1.6129V1.6129H0V0Z" transform="translate(20.9678 28.2258)" fill="#FF6600"/>
<path d="M0 0H1.6129V1.6129H0V0Z" transform="translate(24.1934 28.2258)" fill="#FF6600"/>
<path d="M0 0H1.6129V1.6129H0V0Z" transform="translate(20.9678 25)" fill="#FF6600"/>
<path d="M0 0H1.6129V1.6129H0V0Z" transform="translate(17.7417 25)" fill="#FF6600"/>
<path d="M0 0H1.6129V1.6129H0V0Z" transform="translate(17.7417 21.7742)" fill="#FF6600"/>
</svg>
