<svg width="100" height="100" viewBox="0 0 100 100" fill="none" xmlns="http://www.w3.org/2000/svg">
<g id="steering-wheel">
<path id="Combined Shape" opacity="0.399554" fill-rule="evenodd" clip-rule="evenodd" d="M85.3555 14.6445C75.9115 5.20068 63.3557 0 50 0C36.6445 0 24.0885 5.20068 14.6447 14.6445C5.20078 24.0884 0 36.6443 0 50C0 63.3555 5.20078 75.9116 14.6447 85.3555C24.0887 94.7993 36.6445 100 50 100C63.3557 100 75.9115 94.7993 85.3555 85.3552C94.7992 75.9116 100 63.3555 100 50C100 36.6443 94.7992 24.0884 85.3555 14.6445ZM50 95.6521C24.8273 95.6521 4.34785 75.1726 4.34785 50C4.34785 24.8274 24.8273 4.3479 50 4.3479C75.1727 4.3479 95.6522 24.8274 95.6522 50C95.6522 75.1726 75.1727 95.6521 50 95.6521ZM17.8067 56.1201H29.8404C37.4078 56.1201 43.564 62.1348 43.5644 69.5278V82.9978C43.5644 83.6626 43.2495 84.29 42.7116 84.6975C42.3214 84.9929 41.8459 85.1487 41.3626 85.1487C41.1795 85.1487 40.9951 85.1265 40.8139 85.0808C27.6229 81.7639 17.3189 71.6985 13.9221 58.8118L13.9207 58.8074C13.4066 56.856 13.0563 54.8445 12.8795 52.8296C12.7756 51.646 13.6734 50.6042 14.885 50.5027C16.0983 50.4041 17.1629 51.2788 17.2665 52.4622C17.3741 53.6887 17.5563 54.9133 17.8067 56.1201ZM39.1607 80.0972C29.7506 76.8567 22.3388 69.6152 19.0218 60.4219H29.8406C34.9797 60.4219 39.1607 64.5066 39.1607 69.5276V80.0972ZM83.9377 56.4355C84.6181 56.4355 85.2602 56.7505 85.677 57.2881C86.094 57.8259 86.2388 58.5264 86.0691 59.1848C82.675 72.373 72.3735 82.6746 59.1852 86.0691C59.0042 86.1155 58.8199 86.1384 58.6368 86.1384C58.1538 86.1384 57.6778 85.9792 57.2881 85.677C56.7504 85.2603 56.4356 84.6184 56.4356 83.9377V70.1545C56.4356 62.5898 62.59 56.4355 70.1543 56.4355H83.9377ZM60.8374 80.97V70.1548C60.8374 65.0171 65.017 60.8374 70.1543 60.8374H80.9697C77.6537 70.2444 70.2443 77.6538 60.8374 80.97ZM41.5842 50.4951C41.5842 45.5815 45.5817 41.5842 50.4951 41.5842C55.4084 41.5842 59.4059 45.5818 59.4059 50.4951C59.4059 55.4087 55.4084 59.406 50.4951 59.406C45.5815 59.406 41.5842 55.4084 41.5842 50.4951ZM50.4951 54.9504C48.0383 54.9504 46.0396 52.9519 46.0396 50.4951C46.0396 48.0381 48.0383 46.0396 50.4951 46.0396C52.9518 46.0396 54.9505 48.0381 54.9505 50.4951C54.9505 52.9519 52.9518 54.9504 50.4951 54.9504ZM12.9083 45.6394C13.0433 44.3413 14.0267 43.4202 15.1064 43.5833C16.1858 43.7454 16.9511 44.929 16.8163 46.2268L16.7961 46.4255C16.6774 47.6294 15.8272 48.5149 14.8432 48.5149C14.7659 48.5149 14.6877 48.5095 14.6091 48.4983C13.5293 48.3442 12.7574 47.1667 12.8851 45.8682L12.9083 45.6394ZM85.4473 39.085L85.4414 39.0686C83.1393 31.6357 78.4611 24.9646 72.267 20.282C65.8537 15.4336 58.2229 12.8713 50.1984 12.8713C42.174 12.8713 34.5428 15.4338 28.1299 20.2817C21.9319 24.9673 17.2513 31.6445 14.9508 39.083C14.7277 39.8049 14.886 40.592 15.3704 41.168C15.8548 41.7439 16.5977 42.0278 17.3364 41.918C25.5254 40.7117 37.874 39.2739 50.1982 39.2739C61.8479 39.2739 73.5171 40.5588 81.6765 41.718C82.4107 44.4961 82.7841 47.3682 82.7841 50.2751C82.7841 51.49 83.7569 52.4753 84.9564 52.4753C86.156 52.4753 87.1287 51.49 87.1287 50.2751C87.1291 46.459 86.5635 42.6943 85.4473 39.085ZM20.3265 37.0549C28.4544 35.9661 39.3219 34.8735 50.1984 34.8735C61.075 34.8735 71.9424 35.9661 80.0704 37.0549C74.9374 25.0886 63.336 17.2717 50.1984 17.2717C37.0609 17.2717 25.4595 25.0886 20.3265 37.0549Z" fill="white"/>
</g>
</svg>
