<svg width="40" height="40" viewBox="0 0 40 40" fill="none" xmlns="http://www.w3.org/2000/svg">
<g id="twitter">
<path id="Shape" d="M19.3438 5.25515C19.3438 5.05332 19.3401 4.85332 19.331 4.65515C20.1947 4.01149 20.9438 3.20606 21.5365 2.28423C20.7438 2.64064 19.8929 2.87881 18.9983 2.97874C19.911 2.41691 20.611 1.51874 20.942 0.440572C20.0874 0.958742 19.142 1.32966 18.1365 1.5224C17.331 0.605997 16.182 0.0224024 14.911 0.0005723C12.471 -0.0394277 10.4928 2.0224 10.4928 4.606C10.4928 4.97325 10.531 5.32966 10.6073 5.67325C6.93281 5.43691 3.67647 3.52417 1.49824 0.640572C1.11824 1.33149 0.900065 2.13874 0.900065 3.00423C0.900065 4.64064 1.68007 6.09515 2.86549 6.95332C2.14007 6.92064 1.46007 6.70064 0.863725 6.34057C0.863725 6.36057 0.863725 6.38057 0.863725 6.40057C0.863725 8.68789 2.38739 10.6042 4.40915 11.0515C4.03824 11.1569 3.64732 11.2115 3.24549 11.2097C2.96007 11.2079 2.68366 11.177 2.41458 11.1187C2.97641 12.9933 4.60915 14.3624 6.54183 14.4078C5.02909 15.6623 3.12366 16.4114 1.05458 16.406C0.69817 16.406 0.34549 16.3824 0 16.3387C1.95641 17.6806 4.27817 18.4623 6.77451 18.4623C14.9001 18.4642 19.3438 11.3915 19.3438 5.25515Z" transform="translate(9.23262 10.7686)" fill="white"/>
<path id="Shape_2" fill-rule="evenodd" clip-rule="evenodd" d="M20 0C31.0454 0 40 8.95459 40 20C40 31.0454 31.0454 40 20 40C8.95451 40 0 31.0454 0 20C0 8.95459 8.95451 0 20 0ZM20 1.81836C9.95818 1.81836 1.81818 9.9585 1.81818 20C1.81818 30.042 9.95818 38.1821 20 38.1821C30.0418 38.1821 38.1818 30.042 38.1818 20C38.1818 9.9585 30.0418 1.81836 20 1.81836Z" fill="white"/>
</g>
</svg>
