<svg width="100" height="84" viewBox="0 0 100 84" fill="none" xmlns="http://www.w3.org/2000/svg">
<g opacity="0.402176">
<path fill-rule="evenodd" clip-rule="evenodd" d="M52.9196 50.9377C50.8566 48.019 47.5436 46.2358 43.9912 46.1008C43.916 46.0923 43.8398 46.0876 43.7625 46.0876C39.244 46.0876 35.5101 42.6729 35.001 38.2888C36.3019 37.3413 37.5023 36.1392 38.5662 34.6987C40.7176 31.7861 42.1141 28.1467 42.6318 24.2109C42.7904 24.0386 42.924 23.8376 43.0199 23.6091C43.9308 21.4399 44.3928 19.1243 44.3928 16.7261C44.3928 7.50317 37.4197 0 28.849 0C26.6324 0 24.4818 0.503418 22.449 1.49707C21.6891 1.56104 20.9443 1.69775 20.2293 1.90479C13.0641 3.9751 9.01428 12.6387 11.202 21.2173C11.4221 22.0806 11.702 22.9292 12.0344 23.74C12.125 23.9614 12.252 24.156 12.4016 24.3259C13.2267 30.385 16.0945 35.4263 20.0166 38.2778C19.5125 42.6675 15.776 46.0881 11.2535 46.0881C11.184 46.0881 11.1152 46.0918 11.0472 46.0984C4.91895 46.3149 0 51.3645 0 57.5444V69.8765C0 71.0271 0.932617 71.9597 2.08319 71.9597H38.89C40.0404 71.9597 40.9733 71.0271 40.9733 69.8765C40.9733 68.7261 40.0404 67.7935 38.89 67.7935H4.1662V57.5444C4.1662 53.5239 7.43689 50.2534 11.4572 50.2534C11.5267 50.2534 11.5955 50.2495 11.6635 50.2429C13.1641 50.196 14.601 49.894 15.9326 49.3779L25.7953 63.6128C26.1844 64.1743 26.8242 64.5098 27.5076 64.5098C28.191 64.5098 28.8309 64.1746 29.2199 63.6128L39.0828 49.3779C40.4147 49.894 41.8514 50.196 43.3519 50.2429C43.4199 50.2495 43.4886 50.2534 43.5582 50.2534C45.9225 50.2534 48.1502 51.408 49.5172 53.3423C49.923 53.9165 50.5664 54.2231 51.2201 54.2231C51.6357 54.2231 52.0555 54.0989 52.4207 53.8408C53.3604 53.1772 53.5834 51.8772 52.9196 50.9377ZM21.3851 5.90649C21.9316 5.74878 22.5096 5.65503 23.1031 5.62817C23.409 5.6145 23.7074 5.53369 23.9785 5.39136C25.5266 4.57812 27.1649 4.16553 28.8483 4.16553C34.9948 4.16553 40.015 9.57446 40.2162 16.3066C38.9635 15.3594 37.4051 14.7961 35.7172 14.7961H24.8229C24.2803 14.7961 23.765 14.626 23.3336 14.3037C22.9642 14.0283 22.6791 13.6582 22.5086 13.2332C22.1151 12.2539 21.1414 11.6421 20.09 11.7085C19.0322 11.7764 18.1422 12.5115 17.8756 13.5369C17.3441 15.5784 16.3519 17.4797 15.0029 19.0945C13.9225 13.0542 16.6432 7.27661 21.3851 5.90649ZM20.8199 17.627C19.7918 19.8594 18.3193 21.8809 16.4998 23.5488C16.9508 27.1169 18.2584 30.3662 20.2346 32.78C22.2715 35.2683 24.8543 36.6389 27.5073 36.6389C30.3738 36.6389 33.111 35.0706 35.2147 32.2229C37.4455 29.2031 38.6785 25.1606 38.6924 20.8333C38.1559 19.7283 37.0256 18.9626 35.717 18.9626H24.8227C23.3752 18.9626 21.9987 18.5063 20.8414 17.6428L20.8199 17.627ZM27.5074 58.7688L19.5353 47.2625C21.674 45.488 23.233 43.0408 23.8922 40.2493C25.0529 40.6125 26.2635 40.8054 27.5072 40.8054C28.7443 40.8054 29.9559 40.6179 31.1244 40.2554C31.7844 43.0439 33.3428 45.489 35.4799 47.2625L27.5074 58.7688ZM88.7471 57.6692C88.8166 57.6692 88.8854 57.6729 88.9533 57.6797C95.0811 57.897 100 62.9465 99.9996 69.126V81.458C99.9996 82.6084 99.0668 83.541 97.9164 83.541H47.0676C45.9172 83.541 44.9844 82.6084 44.9844 81.458V69.126C44.9844 62.9463 49.9031 57.8965 56.0309 57.6792C56.0988 57.6726 56.1676 57.6689 56.2371 57.6689C60.7588 57.6689 64.4949 54.2493 65 49.8608C64.1254 49.2275 63.2949 48.4849 62.526 47.6311C60.7234 45.6299 59.3037 43.0952 58.375 40.2739C58.1373 40.6086 57.9219 40.9502 57.7543 41.2244C57.3524 41.8816 56.6183 42.2634 55.8522 42.217C55.0834 42.1709 54.4027 41.7041 54.0826 41.0037C53.0765 38.8027 52.3943 36.4309 52.0551 33.9546C51.9293 33.0913 51.8516 32.1846 51.8201 31.2002C51.6344 25.3892 53.3271 19.8506 56.5865 15.6045C59.9406 11.2349 64.5443 8.74023 69.5492 8.58032C71.9727 8.50342 74.3258 8.97534 76.5527 9.98535C76.6451 9.97974 77.2168 9.95996 77.4467 9.96948C81.7812 10.0107 85.873 12.0149 88.9725 15.6162C91.9998 19.1333 93.7547 23.8198 93.9144 28.812C94.077 33.9009 92.5662 38.759 89.6598 42.4919C89.258 43.0078 88.6471 43.2954 88.0158 43.2954C87.8102 43.2954 87.6024 43.2646 87.3992 43.2019C86.7308 42.9946 86.2228 42.4705 86.0244 41.8213C84.6379 45.209 82.5344 47.9944 79.9832 49.8523C80.4844 54.2451 84.2223 57.6692 88.7471 57.6692ZM95.8338 79.3755H49.1512V69.1265C49.1512 65.1062 52.4219 61.8354 56.4422 61.8354C56.5117 61.8354 56.5805 61.8315 56.6484 61.825C57.3658 61.8025 58.0692 61.7236 58.7529 61.5889C60.5625 67.5295 66.0992 71.7666 72.4926 71.7666C78.8859 71.7666 84.4225 67.5295 86.2324 61.5891C86.916 61.7239 87.6193 61.8027 88.3365 61.825C88.4045 61.8315 88.4733 61.8354 88.5428 61.8354C92.5631 61.8354 95.8338 65.106 95.8338 69.1265V79.3755ZM72.4832 52.3875C71.2594 52.3875 70.0502 52.1941 68.8777 51.8276C68.0412 55.3752 65.7473 58.3643 62.6639 60.1274C63.8666 64.4744 67.8641 67.6001 72.4928 67.6001C77.1211 67.6001 81.1188 64.4746 82.3217 60.1279C79.2379 58.3643 76.944 55.3755 76.1072 51.8281C74.9435 52.1934 73.7301 52.3875 72.4832 52.3875ZM56.6625 35.8379C56.457 35.0356 56.2961 34.2129 56.1807 33.3721C56.0752 32.6477 56.0111 31.8938 55.9847 31.0674C55.8297 26.2166 57.2172 21.626 59.8918 18.1416C62.4715 14.7808 65.9484 12.8643 69.6824 12.7451L69.6971 12.7446C69.9452 12.7341 72.5628 12.6252 75.2334 13.9709C75.5399 14.1252 75.8929 14.197 76.2369 14.1873L76.6077 14.1704L76.6484 14.1685C76.9675 14.1536 77.3582 14.1355 77.3767 14.1357C80.5056 14.1565 83.5021 15.6477 85.8148 18.3345C88.2232 21.1328 89.6209 24.9014 89.7502 28.9456C89.8203 31.1423 89.5117 33.2776 88.8582 35.2422C88.6613 34.7178 88.4418 34.2012 88.2002 33.6931C86.1888 29.4138 82.8031 26.0991 78.6666 24.3594C78.1426 24.1392 77.5516 24.1426 77.0303 24.3687C76.5088 24.5947 76.1025 25.0239 75.9055 25.5571C75.6281 26.3064 75.2922 27.0361 74.9062 27.7263C73.8156 29.6768 71.6168 30.8369 69.1717 30.7515C68.8047 30.739 68.4322 30.7383 68.065 30.75C66.2637 30.8076 64.507 31.1511 62.8345 31.7739C61.1826 32.3975 58.4064 33.9617 56.6625 35.8379ZM64.2977 35.6743C63.4175 36.0068 62.5771 36.4426 61.7873 36.9717C63.216 43.5593 67.5789 48.2212 72.4832 48.2214C75.1361 48.2214 77.7189 46.8513 79.7559 44.3628C81.9123 41.7288 83.2758 38.1013 83.5953 34.1489C83.6004 34.0852 83.6094 34.0232 83.6199 33.9617C82.3988 31.9592 80.7748 30.3093 78.8748 29.1389C78.7676 29.3481 78.6566 29.5554 78.5425 29.7595C76.6869 33.0779 73.0496 35.0525 69.0273 34.9148C68.7523 34.9053 68.4734 34.905 68.1981 34.9138C66.849 34.957 65.5367 35.2129 64.2977 35.6743Z" transform="translate(0 0.0263672)" fill="white"/>
</g>
</svg>
